{"glyphs":{"0":{"ha":1182,"x_min":0,"x_max":0,"o":"m 741 935 b 171 361 466 935 171 753 b 594 -40 171 85 358 -40 b 1165 530 874 -40 1165 138 b 741 935 1165 801 967 935 z m 372 380 b 724 774 372 631 538 774 b 963 511 881 774 963 685 b 609 119 963 261 785 119 b 372 380 449 119 372 208 z "},"1":{"ha":629,"x_min":0,"x_max":0,"o":"m 415 724 l 291 0 l 481 0 l 635 897 l 499 897 l 213 838 l 208 694 z "},"2":{"ha":992,"x_min":0,"x_max":0,"o":"m 651 546 l 418 467 b 121 172 231 405 150 342 l 91 0 l 922 0 l 949 156 l 308 156 l 313 185 b 467 310 320 228 352 272 l 721 397 b 1031 710 955 476 1031 541 b 679 935 1031 865 890 935 b 261 870 512 935 382 908 l 306 712 b 669 772 385 738 531 772 b 831 683 788 772 831 756 b 651 546 831 623 788 592 z "},"3":{"ha":1013,"x_min":0,"x_max":0,"o":"m 465 -40 b 968 301 767 -40 968 47 b 819 480 968 388 913 460 b 999 719 940 526 999 611 b 665 935 999 896 837 935 b 245 863 492 935 333 894 l 283 708 b 641 772 385 740 531 772 b 799 690 764 772 799 734 b 572 549 799 627 756 549 l 382 549 l 356 393 l 601 393 b 769 282 681 393 769 388 b 494 122 769 187 692 122 b 144 188 343 122 217 160 l 90 35 b 465 -40 182 -11 319 -40 z "},"4":{"ha":997,"x_min":0,"x_max":0,"o":"m 656 174 l 626 0 l 811 0 l 841 174 l 997 174 l 1022 313 l 865 313 l 966 897 l 729 897 l 131 353 l 100 174 z m 296 313 l 750 719 l 680 313 z "},"5":{"ha":965,"x_min":0,"x_max":0,"o":"m 163 189 l 108 33 b 457 -40 210 -19 330 -40 b 934 320 763 -40 934 72 b 624 574 934 522 771 574 b 414 542 528 574 456 556 l 459 741 l 908 741 l 935 897 l 316 897 l 214 460 l 308 361 b 583 414 398 394 472 414 b 733 294 695 414 733 376 b 476 122 733 199 666 122 b 163 189 351 122 252 150 z "},"6":{"ha":1048,"x_min":0,"x_max":0,"o":"m 747 935 b 171 363 406 935 171 703 b 564 -40 171 75 331 -40 b 1026 333 919 -40 1026 190 b 697 601 1026 534 874 601 b 390 526 574 601 465 564 b 735 772 442 664 567 772 b 1013 717 860 772 933 747 l 1073 876 b 747 935 1008 900 881 935 z m 364 368 b 673 438 449 406 553 438 b 826 308 750 438 826 415 b 581 122 826 188 716 122 b 364 368 451 122 369 190 z "},"7":{"ha":842,"x_min":0,"x_max":0,"o":"m 151 74 l 291 -40 l 926 750 l 951 897 l 188 897 l 160 742 l 706 742 z "},"8":{"ha":1067,"x_min":0,"x_max":0,"o":"m 399 467 b 141 193 231 415 141 324 b 542 -40 141 16 325 -40 b 1033 256 808 -40 1033 44 b 858 460 1033 349 972 424 b 1065 700 978 494 1065 578 b 710 935 1065 856 919 935 b 263 641 435 935 263 822 b 399 467 263 559 310 494 z m 342 222 b 615 383 342 324 465 383 b 837 253 757 383 837 337 b 567 108 837 157 701 108 b 342 222 424 108 342 145 z m 460 647 b 685 786 460 733 551 786 b 865 677 812 786 865 750 b 640 526 865 585 751 526 b 460 647 535 526 460 573 z "},"9":{"ha":1059,"x_min":0,"x_max":0,"o":"m 455 -40 b 1044 554 860 -40 1044 215 b 649 935 1044 825 890 935 b 187 552 352 935 187 758 b 499 283 187 351 335 283 b 828 384 625 283 717 316 b 467 122 790 228 659 122 b 174 178 332 122 245 150 l 122 18 b 455 -40 193 -10 305 -40 z m 387 565 b 637 772 387 707 499 772 b 847 552 810 772 857 655 b 540 446 767 495 647 446 b 387 565 452 446 387 476 z "}," ":{"ha":344,"x_min":0,"x_max":0,"o":""},"A":{"ha":1174,"x_min":0,"x_max":0,"o":"m 38 51 l 199 -37 l 369 218 l 888 218 l 967 -37 l 1149 22 l 858 897 l 615 897 z m 467 365 l 722 749 l 842 365 z "},"À":{"ha":1174,"x_min":0,"x_max":0,"o":"m 38 51 l 199 -37 l 369 218 l 888 218 l 967 -37 l 1149 22 l 858 897 l 615 897 z m 467 365 l 722 749 l 842 365 z m 490 1137 l 768 981 l 853 1108 l 581 1278 z "},"Á":{"ha":1174,"x_min":0,"x_max":0,"o":"m 38 51 l 199 -37 l 369 218 l 888 218 l 967 -37 l 1149 22 l 858 897 l 615 897 z m 467 365 l 722 749 l 842 365 z m 660 1099 l 729 972 l 1062 1127 l 992 1269 z "},"Â":{"ha":1174,"x_min":0,"x_max":0,"o":"m 38 51 l 199 -37 l 369 218 l 888 218 l 967 -37 l 1149 22 l 858 897 l 615 897 z m 467 365 l 722 749 l 842 365 z m 497 1085 l 593 983 l 756 1110 l 876 983 l 992 1087 l 834 1232 l 706 1232 z "},"Ã":{"ha":1174,"x_min":0,"x_max":0,"o":"m 38 51 l 199 -37 l 369 218 l 888 218 l 967 -37 l 1149 22 l 858 897 l 615 897 z m 443 1057 l 562 1003 b 647 1081 594 1059 613 1081 b 725 1044 672 1081 685 1069 b 851 1006 756 1024 792 1006 b 1060 1167 921 1006 999 1033 l 942 1222 b 870 1143 912 1160 890 1143 b 799 1170 845 1143 831 1151 b 656 1221 750 1199 710 1221 b 443 1057 565 1221 491 1174 z m 467 365 l 722 749 l 842 365 z "},"Ä":{"ha":1174,"x_min":0,"x_max":0,"o":"m 38 51 l 199 -37 l 369 218 l 888 218 l 967 -37 l 1149 22 l 858 897 l 615 897 z m 467 365 l 722 749 l 842 365 z m 482 1006 l 681 1006 l 713 1188 l 514 1188 z m 806 1006 l 1005 1006 l 1037 1188 l 838 1188 z "},"Å":{"ha":1174,"x_min":0,"x_max":0,"o":"m 38 51 l 199 -37 l 369 218 l 888 218 l 967 -37 l 1149 22 l 858 897 l 615 897 z m 467 365 l 722 749 l 842 365 z m 556 1105 b 737 956 556 1019 625 956 b 974 1154 881 956 974 1043 b 791 1304 974 1240 898 1304 b 556 1105 650 1304 556 1220 z m 690 1119 b 776 1198 690 1165 726 1198 b 838 1142 819 1198 838 1176 b 753 1063 838 1096 799 1063 b 690 1119 710 1063 690 1085 z "},"Ā":{"ha":1174,"x_min":0,"x_max":0,"o":"m 38 51 l 199 -37 l 369 218 l 888 218 l 967 -37 l 1149 22 l 858 897 l 615 897 z m 467 365 l 722 749 l 842 365 z m 497 1028 l 990 1028 l 1014 1169 l 521 1169 z "},"Ă":{"ha":1174,"x_min":0,"x_max":0,"o":"m 38 51 l 199 -37 l 369 218 l 888 218 l 967 -37 l 1149 22 l 858 897 l 615 897 z m 467 365 l 722 749 l 842 365 z m 516 1174 b 735 981 516 1052 598 981 b 1026 1194 885 981 989 1061 l 872 1217 b 751 1112 842 1122 788 1112 b 667 1208 717 1112 667 1122 l 667 1217 l 517 1194 b 516 1174 516 1187 516 1181 z "},"Ą":{"ha":1184,"x_min":0,"x_max":0,"o":"m 913 -290 b 1113 -255 991 -290 1070 -269 l 1090 -133 b 940 -160 1028 -150 977 -160 b 895 -128 912 -160 895 -153 b 1085 1 895 -98 930 -53 l 1149 22 l 858 897 l 615 897 l 38 51 l 199 -37 l 369 218 l 888 218 l 937 60 b 729 -157 801 4 729 -62 b 913 -290 729 -243 798 -290 z m 467 365 l 722 749 l 842 365 z "},"Ǻ":{"ha":1174,"x_min":0,"x_max":0,"o":"m 38 51 l 199 -37 l 369 218 l 888 218 l 967 -37 l 1149 22 l 858 897 l 615 897 z m 467 365 l 722 749 l 842 365 z m 549 1074 b 730 924 549 988 618 924 b 967 1123 874 924 967 1012 b 784 1273 967 1208 891 1273 b 549 1074 643 1273 549 1189 z m 625 1417 l 694 1290 l 1026 1445 l 956 1587 z m 683 1088 b 769 1167 683 1133 719 1167 b 831 1111 813 1167 831 1144 b 746 1032 831 1065 792 1032 b 683 1088 703 1032 683 1054 z "},"B":{"ha":1169,"x_min":0,"x_max":0,"o":"m 817 897 l 303 897 l 149 -1 l 694 -1 b 1115 297 982 -1 1115 84 b 951 472 1115 412 1046 460 b 1145 694 1049 498 1145 562 b 817 897 1145 849 1050 897 z m 373 159 l 412 387 l 742 387 b 910 281 871 387 910 356 b 713 159 910 201 849 159 z m 439 544 l 472 737 l 799 737 b 936 657 900 737 936 717 b 747 544 936 594 912 544 z "},"C":{"ha":1158,"x_min":0,"x_max":0,"o":"m 638 -40 b 1097 79 826 -40 965 8 l 1017 240 b 660 129 912 178 783 129 b 378 386 469 129 378 213 b 758 765 378 617 551 765 b 1089 688 888 765 998 727 l 1160 855 b 772 935 1081 888 950 935 b 171 363 484 935 171 760 b 638 -40 171 101 349 -40 z "},"Ç":{"ha":1158,"x_min":0,"x_max":0,"o":"m 404 -137 l 363 -257 b 540 -290 394 -270 464 -290 b 776 -108 713 -290 776 -226 b 754 -33 776 -81 769 -56 b 1097 79 886 -18 994 24 l 1017 240 b 660 129 912 178 783 129 b 378 386 469 129 378 213 b 758 765 378 617 551 765 b 1089 688 888 765 998 727 l 1160 855 b 772 935 1081 888 950 935 b 171 363 484 935 171 760 b 515 -31 171 140 299 5 b 616 -117 594 -65 616 -93 b 542 -162 616 -150 589 -162 b 404 -137 508 -162 450 -152 z "},"Ć":{"ha":1158,"x_min":0,"x_max":0,"o":"m 674 1099 l 743 972 l 1076 1127 l 1006 1269 z m 171 363 b 638 -40 171 101 349 -40 b 1097 79 826 -40 965 8 l 1017 240 b 660 129 912 178 783 129 b 378 386 469 129 378 213 b 758 765 378 617 551 765 b 1089 688 888 765 998 727 l 1160 855 b 772 935 1081 888 950 935 b 171 363 484 935 171 760 z "},"Ĉ":{"ha":1158,"x_min":0,"x_max":0,"o":"m 540 1085 l 636 983 l 799 1110 l 919 983 l 1035 1087 l 877 1232 l 749 1232 z m 171 363 b 638 -40 171 101 349 -40 b 1097 79 826 -40 965 8 l 1017 240 b 660 129 912 178 783 129 b 378 386 469 129 378 213 b 758 765 378 617 551 765 b 1089 688 888 765 998 727 l 1160 855 b 772 935 1081 888 950 935 b 171 363 484 935 171 760 z "},"Ċ":{"ha":1158,"x_min":0,"x_max":0,"o":"m 638 -40 b 1097 79 826 -40 965 8 l 1017 240 b 660 129 912 178 783 129 b 378 386 469 129 378 213 b 758 765 378 617 551 765 b 1089 688 888 765 998 727 l 1160 855 b 772 935 1081 888 950 935 b 171 363 484 935 171 760 b 638 -40 171 101 349 -40 z m 712 1006 l 910 1006 l 943 1188 l 744 1188 z "},"Č":{"ha":1158,"x_min":0,"x_max":0,"o":"m 564 1163 l 726 1017 l 847 1017 l 1059 1164 l 965 1267 l 801 1140 l 681 1267 z m 171 363 b 638 -40 171 101 349 -40 b 1097 79 826 -40 965 8 l 1017 240 b 660 129 912 178 783 129 b 378 386 469 129 378 213 b 758 765 378 617 551 765 b 1089 688 888 765 998 727 l 1160 855 b 772 935 1081 888 950 935 b 171 363 484 935 171 760 z "},"D":{"ha":1228,"x_min":0,"x_max":0,"o":"m 149 0 l 577 0 b 1209 517 995 0 1209 174 b 725 897 1209 776 1085 897 l 303 897 z m 373 162 l 472 735 l 704 735 b 1002 504 922 735 1002 669 b 597 162 1002 304 865 162 z "},"Ď":{"ha":1228,"x_min":0,"x_max":0,"o":"m 509 1163 l 671 1017 l 792 1017 l 1004 1164 l 910 1267 l 746 1140 l 626 1267 z m 149 0 l 577 0 b 1209 517 995 0 1209 174 b 725 897 1209 776 1085 897 l 303 897 z m 373 162 l 472 735 l 704 735 b 1002 504 922 735 1002 669 b 597 162 1002 304 865 162 z "},"E":{"ha":1063,"x_min":0,"x_max":0,"o":"m 303 897 l 149 0 l 990 0 l 1017 160 l 373 160 l 410 377 l 949 377 l 976 535 l 438 535 l 472 737 l 1101 737 l 1128 897 z "},"È":{"ha":1063,"x_min":0,"x_max":0,"o":"m 303 897 l 149 0 l 990 0 l 1017 160 l 373 160 l 410 377 l 949 377 l 976 535 l 438 535 l 472 737 l 1101 737 l 1128 897 z m 498 1137 l 776 981 l 861 1108 l 589 1278 z "},"É":{"ha":1063,"x_min":0,"x_max":0,"o":"m 602 1099 l 671 972 l 1003 1127 l 933 1269 z m 149 0 l 990 0 l 1017 160 l 373 160 l 410 377 l 949 377 l 976 535 l 438 535 l 472 737 l 1101 737 l 1128 897 l 303 897 z "},"Ê":{"ha":1063,"x_min":0,"x_max":0,"o":"m 486 1085 l 582 983 l 745 1110 l 865 983 l 981 1087 l 823 1232 l 695 1232 z m 149 0 l 990 0 l 1017 160 l 373 160 l 410 377 l 949 377 l 976 535 l 438 535 l 472 737 l 1101 737 l 1128 897 l 303 897 z "},"Ë":{"ha":1063,"x_min":0,"x_max":0,"o":"m 303 897 l 149 0 l 990 0 l 1017 160 l 373 160 l 410 377 l 949 377 l 976 535 l 438 535 l 472 737 l 1101 737 l 1128 897 z m 480 1006 l 678 1006 l 710 1188 l 512 1188 z m 804 1006 l 1003 1006 l 1035 1188 l 836 1188 z "},"Ē":{"ha":1063,"x_min":0,"x_max":0,"o":"m 303 897 l 149 0 l 990 0 l 1017 160 l 373 160 l 410 377 l 949 377 l 976 535 l 438 535 l 472 737 l 1101 737 l 1128 897 z m 518 1028 l 1011 1028 l 1035 1169 l 542 1169 z "},"Ĕ":{"ha":1063,"x_min":0,"x_max":0,"o":"m 303 897 l 149 0 l 990 0 l 1017 160 l 373 160 l 410 377 l 949 377 l 976 535 l 438 535 l 472 737 l 1101 737 l 1128 897 z m 522 1174 b 740 981 522 1052 603 981 b 1032 1194 890 981 994 1061 l 878 1217 b 757 1112 848 1122 793 1112 b 672 1208 722 1112 672 1122 l 672 1217 l 522 1194 b 522 1174 522 1187 522 1181 z "},"Ė":{"ha":1063,"x_min":0,"x_max":0,"o":"m 303 897 l 149 0 l 990 0 l 1017 160 l 373 160 l 410 377 l 949 377 l 976 535 l 438 535 l 472 737 l 1101 737 l 1128 897 z m 660 1006 l 858 1006 l 891 1188 l 692 1188 z "},"Ę":{"ha":1063,"x_min":0,"x_max":0,"o":"m 740 -290 b 940 -255 818 -290 897 -269 l 917 -133 b 767 -160 856 -150 804 -160 b 722 -128 739 -160 722 -153 b 988 0 722 -99 767 -42 l 990 0 l 1017 160 l 373 160 l 410 377 l 949 377 l 976 535 l 438 535 l 472 737 l 1101 737 l 1128 897 l 303 897 l 149 0 l 675 0 b 556 -157 597 -40 556 -90 b 740 -290 556 -243 625 -290 z "},"Ě":{"ha":1063,"x_min":0,"x_max":0,"o":"m 505 1163 l 667 1017 l 788 1017 l 1000 1164 l 906 1267 l 742 1140 l 622 1267 z m 149 0 l 990 0 l 1017 160 l 373 160 l 410 377 l 949 377 l 976 535 l 438 535 l 472 737 l 1101 737 l 1128 897 l 303 897 z "},"F":{"ha":1000,"x_min":0,"x_max":0,"o":"m 303 897 l 149 0 l 345 0 l 403 334 l 897 334 l 924 492 l 430 492 l 472 737 l 1075 737 l 1103 897 z "},"G":{"ha":1199,"x_min":0,"x_max":0,"o":"m 649 -40 b 1092 63 850 -40 997 15 l 1167 501 l 672 501 l 644 339 l 943 339 l 915 177 b 666 129 849 148 783 129 b 377 381 473 129 377 206 b 787 765 377 618 551 765 b 1132 688 876 765 996 740 l 1203 855 b 797 935 1092 899 960 935 b 171 360 478 935 171 763 b 649 -40 171 90 360 -40 z "},"Ĝ":{"ha":1199,"x_min":0,"x_max":0,"o":"m 572 1085 l 668 983 l 831 1110 l 951 983 l 1067 1087 l 909 1232 l 781 1232 z m 171 360 b 649 -40 171 90 360 -40 b 1092 63 850 -40 997 15 l 1167 501 l 672 501 l 644 339 l 943 339 l 915 177 b 666 129 849 148 783 129 b 377 381 473 129 377 206 b 787 765 377 618 551 765 b 1132 688 876 765 996 740 l 1203 855 b 797 935 1092 899 960 935 b 171 360 478 935 171 763 z "},"Ğ":{"ha":1199,"x_min":0,"x_max":0,"o":"m 649 -40 b 1092 63 850 -40 997 15 l 1167 501 l 672 501 l 644 339 l 943 339 l 915 177 b 666 129 849 148 783 129 b 377 381 473 129 377 206 b 787 765 377 618 551 765 b 1132 688 876 765 996 740 l 1203 855 b 797 935 1092 899 960 935 b 171 360 478 935 171 763 b 649 -40 171 90 360 -40 z m 577 1174 b 796 981 577 1052 659 981 b 1088 1194 946 981 1050 1061 l 933 1217 b 813 1112 903 1122 849 1112 b 728 1208 778 1112 728 1122 l 728 1217 l 578 1194 b 577 1174 577 1187 577 1181 z "},"Ġ":{"ha":1199,"x_min":0,"x_max":0,"o":"m 649 -40 b 1092 63 850 -40 997 15 l 1167 501 l 672 501 l 644 339 l 943 339 l 915 177 b 666 129 849 148 783 129 b 377 381 473 129 377 206 b 787 765 377 618 551 765 b 1132 688 876 765 996 740 l 1203 855 b 797 935 1092 899 960 935 b 171 360 478 935 171 763 b 649 -40 171 90 360 -40 z m 711 1006 l 910 1006 l 942 1188 l 744 1188 z "},"Ģ":{"ha":1199,"x_min":0,"x_max":0,"o":"m 562 -428 l 714 -253 l 740 -102 l 538 -102 l 513 -248 l 581 -248 l 493 -381 z m 171 360 b 649 -40 171 90 360 -40 b 1092 63 850 -40 997 15 l 1167 501 l 672 501 l 644 339 l 943 339 l 915 177 b 666 129 849 148 783 129 b 377 381 473 129 377 206 b 787 765 377 618 551 765 b 1132 688 876 765 996 740 l 1203 855 b 797 935 1092 899 960 935 b 171 360 478 935 171 763 z "},"H":{"ha":1297,"x_min":0,"x_max":0,"o":"m 303 897 l 149 0 l 345 0 l 408 365 l 1015 365 l 952 0 l 1149 0 l 1303 897 l 1107 897 l 1043 526 l 436 526 l 500 897 z "},"Ĥ":{"ha":1297,"x_min":0,"x_max":0,"o":"m 581 1085 l 677 983 l 840 1110 l 960 983 l 1076 1087 l 918 1232 l 790 1232 z m 149 0 l 345 0 l 408 365 l 1015 365 l 952 0 l 1149 0 l 1303 897 l 1107 897 l 1043 526 l 436 526 l 500 897 l 303 897 z "},"I":{"ha":494,"x_min":0,"x_max":0,"o":"m 303 897 l 149 0 l 345 0 l 500 897 z "},"Ì":{"ha":494,"x_min":0,"x_max":0,"o":"m 303 897 l 149 0 l 345 0 l 500 897 z m 155 1137 l 433 981 l 518 1108 l 246 1278 z "},"Í":{"ha":494,"x_min":0,"x_max":0,"o":"m 303 897 l 149 0 l 345 0 l 500 897 z m 334 1099 l 403 972 l 735 1127 l 665 1269 z "},"Î":{"ha":494,"x_min":0,"x_max":0,"o":"m 303 897 l 149 0 l 345 0 l 500 897 z m 170 1085 l 266 983 l 429 1110 l 549 983 l 665 1087 l 507 1232 l 379 1232 z "},"Ï":{"ha":494,"x_min":0,"x_max":0,"o":"m 303 897 l 149 0 l 345 0 l 500 897 z m 155 1006 l 353 1006 l 385 1188 l 187 1188 z m 479 1006 l 678 1006 l 710 1188 l 511 1188 z "},"Ĩ":{"ha":494,"x_min":0,"x_max":0,"o":"m 303 897 l 149 0 l 345 0 l 500 897 z m 131 1057 l 249 1003 b 334 1081 281 1059 301 1081 b 413 1044 360 1081 372 1069 b 538 1006 444 1024 480 1006 b 748 1167 608 1006 687 1033 l 630 1222 b 558 1143 599 1160 577 1143 b 487 1170 533 1143 519 1151 b 344 1221 438 1199 398 1221 b 131 1057 253 1221 178 1174 z "},"Ī":{"ha":494,"x_min":0,"x_max":0,"o":"m 303 897 l 149 0 l 345 0 l 500 897 z m 180 1028 l 673 1028 l 697 1169 l 204 1169 z "},"Ĭ":{"ha":494,"x_min":0,"x_max":0,"o":"m 303 897 l 149 0 l 345 0 l 500 897 z m 201 1174 b 420 981 201 1052 283 981 b 712 1194 570 981 674 1061 l 558 1217 b 437 1112 528 1122 473 1112 b 352 1208 402 1112 352 1122 l 352 1217 l 202 1194 b 201 1174 201 1187 201 1181 z "},"Į":{"ha":494,"x_min":0,"x_max":0,"o":"m 238 -290 b 438 -255 316 -290 395 -269 l 415 -133 b 265 -160 353 -150 302 -160 b 220 -128 241 -160 220 -153 b 345 0 220 -98 242 -53 l 500 897 l 303 897 l 149 1 b 54 -157 86 -42 54 -93 b 238 -290 54 -243 123 -290 z "},"İ":{"ha":494,"x_min":0,"x_max":0,"o":"m 303 897 l 149 0 l 345 0 l 500 897 z m 322 1006 l 520 1006 l 553 1188 l 354 1188 z "},"J":{"ha":940,"x_min":0,"x_max":0,"o":"m 116 220 l 35 67 b 389 -40 130 1 261 -40 b 869 332 623 -40 815 17 l 967 897 l 771 897 l 678 356 b 403 128 648 181 541 128 b 116 220 301 128 201 167 z "},"Ĵ":{"ha":940,"x_min":0,"x_max":0,"o":"m 635 1085 l 731 983 l 894 1110 l 1014 983 l 1130 1087 l 972 1232 l 844 1232 z m 35 67 b 389 -40 130 1 261 -40 b 869 332 623 -40 815 17 l 967 897 l 771 897 l 678 356 b 403 128 648 181 541 128 b 116 220 301 128 201 167 z "},"K":{"ha":1183,"x_min":0,"x_max":0,"o":"m 703 409 l 988 -37 l 1149 69 l 853 521 l 1231 799 l 1128 935 l 415 406 l 500 897 l 303 897 l 149 0 l 345 0 l 374 165 z "},"Ķ":{"ha":1183,"x_min":0,"x_max":0,"o":"m 535 -428 l 688 -253 l 714 -102 l 512 -102 l 487 -248 l 555 -248 l 467 -381 z m 149 0 l 345 0 l 374 165 l 703 409 l 988 -37 l 1149 69 l 853 521 l 1231 799 l 1128 935 l 415 406 l 500 897 l 303 897 z "},"L":{"ha":960,"x_min":0,"x_max":0,"o":"m 303 897 l 149 0 l 944 0 l 972 164 l 374 164 l 500 897 z "},"Ĺ":{"ha":960,"x_min":0,"x_max":0,"o":"m 324 1099 l 393 972 l 726 1127 l 656 1269 z m 149 0 l 944 0 l 972 164 l 374 164 l 500 897 l 303 897 z "},"Ļ":{"ha":960,"x_min":0,"x_max":0,"o":"m 468 -428 l 620 -253 l 647 -101 l 444 -101 l 419 -247 l 488 -247 l 399 -381 z m 149 0 l 944 0 l 972 164 l 374 164 l 500 897 l 303 897 z "},"Ľ":{"ha":960,"x_min":0,"x_max":0,"o":"m 741 912 l 651 594 l 815 561 l 926 877 z m 149 0 l 944 0 l 972 164 l 374 164 l 500 897 l 303 897 z "},"M":{"ha":1442,"x_min":0,"x_max":0,"o":"m 303 897 l 149 0 l 335 0 l 455 697 l 619 115 l 866 115 l 1231 717 l 1107 0 l 1293 0 l 1448 897 l 1140 897 l 767 275 l 598 897 z "},"N":{"ha":1249,"x_min":0,"x_max":0,"o":"m 303 897 l 149 0 l 338 0 l 453 665 l 867 0 l 1100 0 l 1255 897 l 1065 897 l 948 219 l 538 897 z "},"Ñ":{"ha":1249,"x_min":0,"x_max":0,"o":"m 303 897 l 149 0 l 338 0 l 453 665 l 867 0 l 1100 0 l 1255 897 l 1065 897 l 948 219 l 538 897 z m 513 1057 l 631 1003 b 716 1081 663 1059 683 1081 b 794 1044 742 1081 754 1069 b 920 1006 826 1024 862 1006 b 1130 1167 990 1006 1069 1033 l 1012 1222 b 940 1143 981 1160 959 1143 b 869 1170 915 1143 901 1151 b 726 1221 819 1199 780 1221 b 513 1057 635 1221 560 1174 z "},"Ń":{"ha":1249,"x_min":0,"x_max":0,"o":"m 729 1099 l 798 972 l 1131 1127 l 1060 1269 z m 149 0 l 338 0 l 453 665 l 867 0 l 1100 0 l 1255 897 l 1065 897 l 948 219 l 538 897 l 303 897 z "},"Ņ":{"ha":1249,"x_min":0,"x_max":0,"o":"m 558 -428 l 710 -253 l 736 -102 l 534 -102 l 509 -248 l 577 -248 l 489 -381 z m 149 0 l 338 0 l 453 665 l 867 0 l 1100 0 l 1255 897 l 1065 897 l 948 219 l 538 897 l 303 897 z "},"Ň":{"ha":1249,"x_min":0,"x_max":0,"o":"m 603 1163 l 765 1017 l 885 1017 l 1098 1164 l 1004 1267 l 840 1140 l 719 1267 z m 149 0 l 338 0 l 453 665 l 867 0 l 1100 0 l 1255 897 l 1065 897 l 948 219 l 538 897 l 303 897 z "},"O":{"ha":1317,"x_min":0,"x_max":0,"o":"m 798 935 b 171 368 492 935 171 749 b 661 -40 171 72 404 -40 b 1300 519 983 -40 1300 142 b 798 935 1300 835 1031 935 z m 378 388 b 788 765 378 617 551 765 b 1093 492 1001 765 1093 651 b 677 129 1093 260 886 129 b 378 388 503 129 378 197 z "},"Ò":{"ha":1317,"x_min":0,"x_max":0,"o":"m 798 935 b 171 368 492 935 171 749 b 661 -40 171 72 404 -40 b 1300 519 983 -40 1300 142 b 798 935 1300 835 1031 935 z m 378 388 b 788 765 378 617 551 765 b 1093 492 1001 765 1093 651 b 677 129 1093 260 886 129 b 378 388 503 129 378 197 z m 633 1137 l 912 981 l 997 1108 l 724 1278 z "},"Ó":{"ha":1317,"x_min":0,"x_max":0,"o":"m 715 1099 l 784 972 l 1117 1127 l 1047 1269 z m 171 368 b 661 -40 171 72 404 -40 b 1300 519 983 -40 1300 142 b 798 935 1300 835 1031 935 b 171 368 492 935 171 749 z m 378 388 b 788 765 378 617 551 765 b 1093 492 1001 765 1093 651 b 677 129 1093 260 886 129 b 378 388 503 129 378 197 z "},"Ô":{"ha":1317,"x_min":0,"x_max":0,"o":"m 582 1085 l 678 983 l 841 1110 l 961 983 l 1077 1087 l 919 1232 l 791 1232 z m 171 368 b 661 -40 171 72 404 -40 b 1300 519 983 -40 1300 142 b 798 935 1300 835 1031 935 b 171 368 492 935 171 749 z m 378 388 b 788 765 378 617 551 765 b 1093 492 1001 765 1093 651 b 677 129 1093 260 886 129 b 378 388 503 129 378 197 z "},"Õ":{"ha":1317,"x_min":0,"x_max":0,"o":"m 798 935 b 171 368 492 935 171 749 b 661 -40 171 72 404 -40 b 1300 519 983 -40 1300 142 b 798 935 1300 835 1031 935 z m 378 388 b 788 765 378 617 551 765 b 1093 492 1001 765 1093 651 b 677 129 1093 260 886 129 b 378 388 503 129 378 197 z m 535 1057 l 654 1003 b 739 1081 686 1059 706 1081 b 817 1044 765 1081 777 1069 b 943 1006 849 1024 885 1006 b 1153 1167 1013 1006 1092 1033 l 1035 1222 b 963 1143 1004 1160 982 1143 b 892 1170 938 1143 924 1151 b 749 1221 842 1199 803 1221 b 535 1057 658 1221 583 1174 z "},"Ö":{"ha":1317,"x_min":0,"x_max":0,"o":"m 592 1188 l 560 1006 l 759 1006 l 791 1188 z m 171 368 b 661 -40 171 72 404 -40 b 1300 519 983 -40 1300 142 b 798 935 1300 835 1031 935 b 171 368 492 935 171 749 z m 378 388 b 788 765 378 617 551 765 b 1093 492 1001 765 1093 651 b 677 129 1093 260 886 129 b 378 388 503 129 378 197 z m 885 1006 l 1083 1006 l 1115 1188 l 917 1188 z "},"Ō":{"ha":1317,"x_min":0,"x_max":0,"o":"m 611 1169 l 587 1028 l 1080 1028 l 1104 1169 z m 171 368 b 661 -40 171 72 404 -40 b 1300 519 983 -40 1300 142 b 798 935 1300 835 1031 935 b 171 368 492 935 171 749 z m 378 388 b 788 765 378 617 551 765 b 1093 492 1001 765 1093 651 b 677 129 1093 260 886 129 b 378 388 503 129 378 197 z "},"Ŏ":{"ha":1317,"x_min":0,"x_max":0,"o":"m 798 935 b 171 368 492 935 171 749 b 661 -40 171 72 404 -40 b 1300 519 983 -40 1300 142 b 798 935 1300 835 1031 935 z m 378 388 b 788 765 378 617 551 765 b 1093 492 1001 765 1093 651 b 677 129 1093 260 886 129 b 378 388 503 129 378 197 z m 610 1174 b 829 981 610 1052 692 981 b 1121 1194 979 981 1083 1061 l 967 1217 b 846 1112 937 1122 882 1112 b 761 1208 811 1112 761 1122 l 761 1217 l 611 1194 b 610 1174 610 1187 610 1181 z "},"Ő":{"ha":1317,"x_min":0,"x_max":0,"o":"m 594 1076 l 699 976 l 963 1197 l 854 1313 z m 171 368 b 661 -40 171 72 404 -40 b 1300 519 983 -40 1300 142 b 798 935 1300 835 1031 935 b 171 368 492 935 171 749 z m 378 388 b 788 765 378 617 551 765 b 1093 492 1001 765 1093 651 b 677 129 1093 260 886 129 b 378 388 503 129 378 197 z m 920 1091 l 1012 981 l 1296 1178 l 1201 1303 z "},"P":{"ha":1132,"x_min":0,"x_max":0,"o":"m 841 897 l 303 897 l 149 0 l 345 0 l 381 210 l 697 210 b 1180 610 1038 210 1180 351 b 841 897 1180 810 1067 897 z m 410 372 l 472 735 l 802 735 b 973 585 917 735 973 701 b 719 372 973 438 869 372 z "},"Q":{"ha":1317,"x_min":0,"x_max":0,"o":"m 798 935 b 171 368 492 935 171 749 b 661 -40 171 72 404 -40 b 805 -28 710 -40 758 -36 l 874 -199 l 1030 -129 l 969 21 b 1300 519 1158 103 1300 268 b 798 935 1300 835 1031 935 z m 378 388 b 788 765 378 617 551 765 b 1093 492 1001 765 1093 651 b 903 184 1093 348 1013 243 l 828 368 l 672 299 l 740 133 b 677 129 719 131 698 129 b 378 388 503 129 378 197 z "},"R":{"ha":1210,"x_min":0,"x_max":0,"o":"m 707 245 b 851 253 759 245 807 248 l 921 -37 l 1100 16 l 1027 299 b 1210 624 1153 358 1210 464 b 869 897 1210 832 1091 897 l 303 897 l 149 0 l 345 0 l 388 245 z m 415 407 l 472 735 l 841 735 b 1003 601 949 735 1003 717 b 744 407 1003 490 949 407 z "},"Ŕ":{"ha":1210,"x_min":0,"x_max":0,"o":"m 616 1099 l 685 972 l 1017 1127 l 947 1269 z m 149 0 l 345 0 l 388 245 l 707 245 b 851 253 759 245 807 248 l 921 -37 l 1100 16 l 1027 299 b 1210 624 1153 358 1210 464 b 869 897 1210 832 1091 897 l 303 897 z m 415 407 l 472 735 l 841 735 b 1003 601 949 735 1003 717 b 744 407 1003 490 949 407 z "},"Ŗ":{"ha":1210,"x_min":0,"x_max":0,"o":"m 531 -428 l 683 -253 l 710 -102 l 508 -102 l 483 -248 l 551 -248 l 463 -381 z m 149 0 l 345 0 l 388 245 l 707 245 b 851 253 759 245 807 248 l 921 -37 l 1100 16 l 1027 299 b 1210 624 1153 358 1210 464 b 869 897 1210 832 1091 897 l 303 897 z m 415 407 l 472 735 l 841 735 b 1003 601 949 735 1003 717 b 744 407 1003 490 949 407 z "},"Ř":{"ha":1210,"x_min":0,"x_max":0,"o":"m 541 1163 l 703 1017 l 824 1017 l 1036 1164 l 942 1267 l 778 1140 l 658 1267 z m 149 0 l 345 0 l 388 245 l 707 245 b 851 253 759 245 807 248 l 921 -37 l 1100 16 l 1027 299 b 1210 624 1153 358 1210 464 b 869 897 1210 832 1091 897 l 303 897 z m 415 407 l 472 735 l 841 735 b 1003 601 949 735 1003 717 b 744 407 1003 490 949 407 z "},"S":{"ha":1111,"x_min":0,"x_max":0,"o":"m 528 -40 b 1071 303 798 -40 1071 7 b 671 550 1071 520 854 538 b 418 642 535 559 418 565 b 694 768 418 721 499 768 b 1037 716 814 768 911 752 l 1083 881 b 708 933 989 908 865 933 b 221 617 455 933 221 856 b 592 379 221 410 415 390 b 878 267 741 370 878 368 b 542 126 878 172 732 126 b 168 207 407 126 256 167 l 105 42 b 528 -40 209 -6 363 -40 z "},"Ś":{"ha":1111,"x_min":0,"x_max":0,"o":"m 592 1099 l 660 972 l 993 1127 l 923 1269 z m 105 42 b 528 -40 209 -6 363 -40 b 1071 303 798 -40 1071 7 b 671 550 1071 520 854 538 b 418 642 535 559 418 565 b 694 768 418 721 499 768 b 1037 716 814 768 911 752 l 1083 881 b 708 933 989 908 865 933 b 221 617 455 933 221 856 b 592 379 221 410 415 390 b 878 267 741 370 878 368 b 542 126 878 172 732 126 b 168 207 407 126 256 167 z "},"Ŝ":{"ha":1111,"x_min":0,"x_max":0,"o":"m 499 1085 l 594 983 l 758 1110 l 878 983 l 994 1087 l 835 1232 l 708 1232 z m 105 42 b 528 -40 209 -6 363 -40 b 1071 303 798 -40 1071 7 b 671 550 1071 520 854 538 b 418 642 535 559 418 565 b 694 768 418 721 499 768 b 1037 716 814 768 911 752 l 1083 881 b 708 933 989 908 865 933 b 221 617 455 933 221 856 b 592 379 221 410 415 390 b 878 267 741 370 878 368 b 542 126 878 172 732 126 b 168 207 407 126 256 167 z "},"Ş":{"ha":1111,"x_min":0,"x_max":0,"o":"m 374 -137 l 333 -257 b 510 -290 364 -270 434 -290 b 747 -108 683 -290 747 -226 b 722 -29 747 -79 738 -53 b 1071 303 915 -3 1071 79 b 671 550 1071 520 854 538 b 418 642 535 559 418 565 b 694 768 418 721 499 768 b 1037 716 814 768 911 752 l 1083 881 b 708 933 989 908 865 933 b 221 617 455 933 221 856 b 592 379 221 410 415 390 b 878 267 741 370 878 368 b 542 126 878 172 732 126 b 168 207 407 126 256 167 l 105 42 b 506 -40 204 -4 349 -37 b 586 -117 569 -70 586 -95 b 513 -162 586 -150 559 -162 b 374 -137 478 -162 420 -152 z "},"Š":{"ha":1111,"x_min":0,"x_max":0,"o":"m 509 1163 l 671 1017 l 792 1017 l 1004 1164 l 910 1267 l 746 1140 l 626 1267 z m 105 42 b 528 -40 209 -6 363 -40 b 1071 303 798 -40 1071 7 b 671 550 1071 520 854 538 b 418 642 535 559 418 565 b 694 768 418 721 499 768 b 1037 716 814 768 911 752 l 1083 881 b 708 933 989 908 865 933 b 221 617 455 933 221 856 b 592 379 221 410 415 390 b 878 267 741 370 878 368 b 542 126 878 172 732 126 b 168 207 407 126 256 167 z "},"Ș":{"ha":1111,"x_min":0,"x_max":0,"o":"m 499 -428 l 651 -253 l 678 -102 l 476 -102 l 451 -248 l 519 -248 l 431 -381 z m 105 42 b 528 -40 209 -6 363 -40 b 1071 303 798 -40 1071 7 b 671 550 1071 520 854 538 b 418 642 535 559 418 565 b 694 768 418 721 499 768 b 1037 716 814 768 911 752 l 1083 881 b 708 933 989 908 865 933 b 221 617 455 933 221 856 b 592 379 221 410 415 390 b 878 267 741 370 878 368 b 542 126 878 172 732 126 b 168 207 407 126 256 167 z "},"T":{"ha":1017,"x_min":0,"x_max":0,"o":"m 525 732 l 399 0 l 595 0 l 722 732 l 1130 732 l 1158 896 l 169 896 l 140 732 z "},"Ţ":{"ha":1017,"x_min":0,"x_max":0,"o":"m 407 -428 l 559 -253 l 585 -102 l 383 -102 l 358 -248 l 426 -248 l 338 -381 z m 140 732 l 525 732 l 399 0 l 595 0 l 722 732 l 1130 732 l 1158 896 l 169 896 z "},"Ť":{"ha":1017,"x_min":0,"x_max":0,"o":"m 433 1163 l 595 1017 l 716 1017 l 928 1164 l 835 1267 l 670 1140 l 550 1267 z m 140 732 l 525 732 l 399 0 l 595 0 l 722 732 l 1130 732 l 1158 896 l 169 896 z "},"U":{"ha":1192,"x_min":0,"x_max":0,"o":"m 199 408 b 189 297 192 368 189 331 b 595 -40 189 18 413 -40 b 1134 409 840 -40 1070 40 l 1218 897 l 1022 897 l 938 415 b 608 129 899 188 760 129 b 388 322 474 129 388 172 b 397 415 388 349 390 380 l 480 897 l 283 897 z "},"Ù":{"ha":1192,"x_min":0,"x_max":0,"o":"m 199 408 b 189 297 192 368 189 331 b 595 -40 189 18 413 -40 b 1134 409 840 -40 1070 40 l 1218 897 l 1022 897 l 938 415 b 608 129 899 188 760 129 b 388 322 474 129 388 172 b 397 415 388 349 390 380 l 480 897 l 283 897 z m 517 1137 l 796 981 l 881 1108 l 608 1278 z "},"Ú":{"ha":1192,"x_min":0,"x_max":0,"o":"m 667 1099 l 735 972 l 1068 1127 l 998 1269 z m 189 297 b 595 -40 189 18 413 -40 b 1134 409 840 -40 1070 40 l 1218 897 l 1022 897 l 938 415 b 608 129 899 188 760 129 b 388 322 474 129 388 172 b 397 415 388 349 390 380 l 480 897 l 283 897 l 199 408 b 189 297 192 368 189 331 z "},"Û":{"ha":1192,"x_min":0,"x_max":0,"o":"m 535 1085 l 631 983 l 794 1110 l 915 983 l 1031 1087 l 872 1232 l 744 1232 z m 189 297 b 595 -40 189 18 413 -40 b 1134 409 840 -40 1070 40 l 1218 897 l 1022 897 l 938 415 b 608 129 899 188 760 129 b 388 322 474 129 388 172 b 397 415 388 349 390 380 l 480 897 l 283 897 l 199 408 b 189 297 192 368 189 331 z "},"Ü":{"ha":1192,"x_min":0,"x_max":0,"o":"m 535 1188 l 503 1006 l 701 1006 l 733 1188 z m 189 297 b 595 -40 189 18 413 -40 b 1134 409 840 -40 1070 40 l 1218 897 l 1022 897 l 938 415 b 608 129 899 188 760 129 b 388 322 474 129 388 172 b 397 415 388 349 390 380 l 480 897 l 283 897 l 199 408 b 189 297 192 368 189 331 z m 827 1006 l 1026 1006 l 1058 1188 l 859 1188 z "},"Ũ":{"ha":1192,"x_min":0,"x_max":0,"o":"m 199 408 b 189 297 192 368 189 331 b 595 -40 189 18 413 -40 b 1134 409 840 -40 1070 40 l 1218 897 l 1022 897 l 938 415 b 608 129 899 188 760 129 b 388 322 474 129 388 172 b 397 415 388 349 390 380 l 480 897 l 283 897 z m 477 1057 l 596 1003 b 681 1081 628 1059 647 1081 b 759 1044 706 1081 719 1069 b 885 1006 790 1024 826 1006 b 1094 1167 955 1006 1033 1033 l 976 1222 b 904 1143 946 1160 924 1143 b 833 1170 879 1143 865 1151 b 690 1221 784 1199 744 1221 b 477 1057 599 1221 525 1174 z "},"Ū":{"ha":1192,"x_min":0,"x_max":0,"o":"m 199 408 b 189 297 192 368 189 331 b 595 -40 189 18 413 -40 b 1134 409 840 -40 1070 40 l 1218 897 l 1022 897 l 938 415 b 608 129 899 188 760 129 b 388 322 474 129 388 172 b 397 415 388 349 390 380 l 480 897 l 283 897 z m 519 1028 l 1013 1028 l 1037 1169 l 544 1169 z "},"Ŭ":{"ha":1192,"x_min":0,"x_max":0,"o":"m 199 408 b 189 297 192 368 189 331 b 595 -40 189 18 413 -40 b 1134 409 840 -40 1070 40 l 1218 897 l 1022 897 l 938 415 b 608 129 899 188 760 129 b 388 322 474 129 388 172 b 397 415 388 349 390 380 l 480 897 l 283 897 z m 551 1174 b 770 981 551 1052 633 981 b 1062 1194 920 981 1024 1061 l 908 1217 b 787 1112 878 1122 823 1112 b 702 1208 752 1112 702 1122 l 702 1217 l 552 1194 b 551 1174 551 1187 551 1181 z "},"Ů":{"ha":1192,"x_min":0,"x_max":0,"o":"m 769 956 b 1006 1154 913 956 1006 1043 b 823 1304 1006 1240 930 1304 b 588 1105 682 1304 588 1220 b 769 956 588 1019 657 956 z m 189 297 b 595 -40 189 18 413 -40 b 1134 409 840 -40 1070 40 l 1218 897 l 1022 897 l 938 415 b 608 129 899 188 760 129 b 388 322 474 129 388 172 b 397 415 388 349 390 380 l 480 897 l 283 897 l 199 408 b 189 297 192 368 189 331 z m 722 1119 b 808 1198 722 1165 758 1198 b 870 1142 851 1198 870 1176 b 785 1063 870 1096 831 1063 b 722 1119 742 1063 722 1085 z "},"Ű":{"ha":1192,"x_min":0,"x_max":0,"o":"m 199 408 b 189 297 192 368 189 331 b 595 -40 189 18 413 -40 b 1134 409 840 -40 1070 40 l 1218 897 l 1022 897 l 938 415 b 608 129 899 188 760 129 b 388 322 474 129 388 172 b 397 415 388 349 390 380 l 480 897 l 283 897 z m 533 1076 l 638 976 l 901 1197 l 793 1313 z m 859 1091 l 951 981 l 1235 1178 l 1140 1303 z "},"Ų":{"ha":1192,"x_min":0,"x_max":0,"o":"m 199 408 b 189 297 192 368 189 331 b 468 -29 189 81 323 -2 b 410 -157 430 -66 410 -108 b 594 -290 410 -243 479 -290 b 794 -255 672 -290 751 -269 l 772 -133 b 621 -160 710 -150 658 -160 b 576 -128 593 -160 576 -153 b 686 -36 576 -106 599 -74 b 1134 409 895 -16 1078 86 l 1218 897 l 1022 897 l 938 415 b 608 129 899 188 760 129 b 388 322 474 129 388 172 b 397 415 388 349 390 380 l 480 897 l 283 897 z "},"V":{"ha":1106,"x_min":0,"x_max":0,"o":"m 169 861 l 446 0 l 688 0 l 1238 832 l 1074 928 l 592 174 l 355 928 z "},"W":{"ha":1538,"x_min":0,"x_max":0,"o":"m 211 899 l 338 0 l 578 0 l 900 712 l 997 0 l 1240 0 l 1639 857 l 1471 928 l 1142 197 l 1049 897 l 800 897 l 486 199 l 396 928 z "},"Ŵ":{"ha":1538,"x_min":0,"x_max":0,"o":"m 682 1085 l 778 983 l 941 1110 l 1061 983 l 1177 1087 l 1019 1232 l 891 1232 z m 211 899 l 338 0 l 578 0 l 900 712 l 997 0 l 1240 0 l 1639 857 l 1471 928 l 1142 197 l 1049 897 l 800 897 l 486 199 l 396 928 z "},"Ẁ":{"ha":1538,"x_min":0,"x_max":0,"o":"m 211 899 l 338 0 l 578 0 l 900 712 l 997 0 l 1240 0 l 1639 857 l 1471 928 l 1142 197 l 1049 897 l 800 897 l 486 199 l 396 928 z m 711 1137 l 990 981 l 1074 1108 l 802 1278 z "},"Ẃ":{"ha":1538,"x_min":0,"x_max":0,"o":"m 823 1099 l 892 972 l 1224 1127 l 1154 1269 z m 211 899 l 338 0 l 578 0 l 900 712 l 997 0 l 1240 0 l 1639 857 l 1471 928 l 1142 197 l 1049 897 l 800 897 l 486 199 l 396 928 z "},"Ẅ":{"ha":1538,"x_min":0,"x_max":0,"o":"m 697 1188 l 665 1006 l 863 1006 l 895 1188 z m 211 899 l 338 0 l 578 0 l 900 712 l 997 0 l 1240 0 l 1639 857 l 1471 928 l 1142 197 l 1049 897 l 800 897 l 486 199 l 396 928 z m 989 1006 l 1188 1006 l 1219 1188 l 1021 1188 z "},"X":{"ha":1118,"x_min":0,"x_max":0,"o":"m 73 97 l 192 -37 l 625 335 l 943 -37 l 1090 85 l 769 453 l 1178 797 l 1063 928 l 658 583 l 368 928 l 221 801 l 511 463 z "},"Y":{"ha":1119,"x_min":0,"x_max":0,"o":"m 529 267 l 483 0 l 680 0 l 726 269 l 1240 799 l 1116 927 l 642 434 l 324 928 l 168 831 z "},"Ý":{"ha":1119,"x_min":0,"x_max":0,"o":"m 529 267 l 483 0 l 680 0 l 726 269 l 1240 799 l 1116 927 l 642 434 l 324 928 l 168 831 z m 603 1099 l 672 972 l 1004 1127 l 934 1269 z "},"Ŷ":{"ha":1119,"x_min":0,"x_max":0,"o":"m 529 267 l 483 0 l 680 0 l 726 269 l 1240 799 l 1116 927 l 642 434 l 324 928 l 168 831 z m 485 1085 l 581 983 l 744 1110 l 864 983 l 980 1087 l 822 1232 l 694 1232 z "},"Ÿ":{"ha":1119,"x_min":0,"x_max":0,"o":"m 529 267 l 483 0 l 680 0 l 726 269 l 1240 799 l 1116 927 l 642 434 l 324 928 l 168 831 z m 456 1006 l 654 1006 l 686 1188 l 488 1188 z m 780 1006 l 978 1006 l 1010 1188 l 812 1188 z "},"Z":{"ha":1048,"x_min":0,"x_max":0,"o":"m 91 176 l 60 0 l 992 0 l 1020 162 l 349 162 l 1085 712 l 1117 897 l 258 897 l 231 735 l 834 735 z "},"Ź":{"ha":1048,"x_min":0,"x_max":0,"o":"m 572 1099 l 640 972 l 973 1127 l 903 1269 z m 60 0 l 992 0 l 1020 162 l 349 162 l 1085 712 l 1117 897 l 258 897 l 231 735 l 834 735 l 91 176 z "},"Ż":{"ha":1048,"x_min":0,"x_max":0,"o":"m 91 176 l 60 0 l 992 0 l 1020 162 l 349 162 l 1085 712 l 1117 897 l 258 897 l 231 735 l 834 735 z m 634 1006 l 833 1006 l 865 1188 l 667 1188 z "},"Ž":{"ha":1048,"x_min":0,"x_max":0,"o":"m 500 1163 l 662 1017 l 783 1017 l 995 1164 l 901 1267 l 737 1140 l 617 1267 z m 60 0 l 992 0 l 1020 162 l 349 162 l 1085 712 l 1117 897 l 258 897 l 231 735 l 834 735 l 91 176 z "},"Æ":{"ha":1685,"x_min":0,"x_max":0,"o":"m 42 82 l 182 -40 l 387 182 l 814 182 l 782 0 l 1617 0 l 1644 160 l 999 160 l 1037 377 l 1576 377 l 1603 535 l 1064 535 l 1099 737 l 1727 737 l 1755 897 l 817 897 z m 526 333 l 912 752 l 840 333 z "},"Ǽ":{"ha":1685,"x_min":0,"x_max":0,"o":"m 876 1099 l 944 972 l 1277 1127 l 1207 1269 z m 42 82 l 182 -40 l 387 182 l 814 182 l 782 0 l 1617 0 l 1644 160 l 999 160 l 1037 377 l 1576 377 l 1603 535 l 1064 535 l 1099 737 l 1727 737 l 1755 897 l 817 897 z m 526 333 l 912 752 l 840 333 z "},"Ð":{"ha":1261,"x_min":0,"x_max":0,"o":"m 117 364 l 244 364 l 181 0 l 610 0 b 1242 517 1028 0 1242 174 b 758 897 1242 776 1118 897 l 336 897 l 269 511 l 142 511 z m 406 162 l 440 364 l 700 364 l 725 511 l 466 511 l 505 735 l 737 735 b 1035 504 954 735 1035 669 b 629 162 1035 304 898 162 z "},"Ø":{"ha":1317,"x_min":0,"x_max":0,"o":"m 96 67 l 186 -50 l 324 50 b 661 -40 413 -13 535 -40 b 1300 519 983 -40 1300 142 b 1249 726 1300 603 1281 671 l 1363 808 l 1272 926 l 1150 836 b 798 935 1051 908 919 935 b 171 368 492 935 171 749 b 222 159 171 284 190 215 z m 378 388 b 788 765 378 617 551 765 b 985 716 872 765 937 747 l 394 284 b 378 388 383 313 378 348 z m 488 170 l 1076 599 b 1093 492 1088 567 1093 531 b 677 129 1093 260 886 129 b 488 170 603 129 538 142 z "},"Ǿ":{"ha":1317,"x_min":0,"x_max":0,"o":"m 124 58 l 197 -40 l 322 51 b 661 -40 413 -12 534 -40 b 1300 519 983 -40 1300 142 b 1249 728 1300 603 1281 672 l 1373 818 l 1301 917 l 1169 822 b 798 935 1069 903 928 935 b 171 368 492 935 171 749 b 235 139 171 274 194 199 z m 378 388 b 788 765 378 617 551 765 b 1006 701 884 765 956 742 l 403 262 b 378 388 387 296 378 338 z m 486 171 l 1076 601 b 1093 492 1088 568 1093 531 b 677 129 1093 260 886 129 b 486 171 603 129 537 142 z m 694 1099 l 763 972 l 1095 1127 l 1025 1269 z "},"Þ":{"ha":1144,"x_min":0,"x_max":0,"o":"m 293 897 l 138 0 l 335 0 l 359 141 l 653 141 b 1133 527 1013 141 1133 265 b 799 799 1133 712 1007 799 l 473 799 l 490 897 z m 387 303 l 445 638 l 767 638 b 926 494 874 638 926 597 b 683 303 926 390 877 303 z "},"Đ":{"ha":1260,"x_min":0,"x_max":0,"o":"m 117 364 l 244 364 l 181 0 l 610 0 b 1242 517 1028 0 1242 174 b 758 897 1242 776 1118 897 l 336 897 l 269 511 l 142 511 z m 406 162 l 440 364 l 700 364 l 725 511 l 466 511 l 505 735 l 737 735 b 1035 504 954 735 1035 669 b 629 162 1035 304 898 162 z "},"Ħ":{"ha":1297,"x_min":0,"x_max":0,"o":"m 166 767 l 142 627 l 257 627 l 149 0 l 345 0 l 408 365 l 1015 365 l 952 0 l 1149 0 l 1257 627 l 1351 627 l 1375 767 l 1281 767 l 1303 897 l 1107 897 l 1085 767 l 478 767 l 500 897 l 303 897 l 281 767 z m 436 526 l 453 627 l 1060 627 l 1043 526 z "},"Ĳ":{"ha":1434,"x_min":0,"x_max":0,"o":"m 303 897 l 149 0 l 345 0 l 500 897 z m 528 67 b 883 -40 624 1 755 -40 b 1363 332 1117 -40 1309 17 l 1460 897 l 1265 897 l 1172 356 b 897 128 1142 181 1035 128 b 610 220 795 128 694 167 z "},"Ŀ":{"ha":960,"x_min":0,"x_max":0,"o":"m 303 897 l 149 0 l 944 0 l 972 164 l 374 164 l 500 897 z m 658 431 l 860 431 l 894 627 l 692 627 z "},"Ł":{"ha":960,"x_min":0,"x_max":0,"o":"m 51 408 l 106 276 l 203 319 l 149 0 l 944 0 l 972 164 l 374 164 l 416 410 l 699 533 l 644 665 l 445 578 l 500 897 l 303 897 l 233 486 z "},"Ŋ":{"ha":1249,"x_min":0,"x_max":0,"o":"m 703 -121 l 718 -290 b 1099 -6 954 -249 1071 -170 l 1255 897 l 1065 897 l 958 272 l 538 897 l 303 897 l 149 0 l 338 0 l 453 665 l 906 10 b 703 -121 878 -62 793 -99 z "},"Œ":{"ha":1688,"x_min":0,"x_max":0,"o":"m 776 897 b 166 365 471 897 166 752 b 613 0 166 98 376 0 l 1619 0 l 1647 160 l 1002 160 l 1040 377 l 1578 377 l 1606 535 l 1067 535 l 1101 737 l 1730 737 l 1758 897 z m 373 392 b 745 737 373 620 556 737 l 905 737 l 806 160 l 640 160 b 373 392 458 160 373 228 z "},"Ŧ":{"ha":1017,"x_min":0,"x_max":0,"o":"m 253 497 l 231 369 l 463 369 l 399 0 l 595 0 l 659 369 l 842 369 l 864 497 l 681 497 l 722 732 l 1130 732 l 1158 896 l 169 896 l 140 732 l 525 732 l 485 497 z "},"Ω":{"ha":1298,"x_min":0,"x_max":0,"o":"m 371 133 l 110 133 l 87 0 l 576 0 l 599 133 b 406 442 481 207 406 308 b 784 794 406 640 581 794 b 1055 544 942 794 1055 712 b 744 133 1055 363 931 231 l 722 0 l 1212 0 l 1235 133 l 992 133 b 1256 568 1138 216 1256 379 b 794 949 1256 819 1055 949 b 208 441 485 949 208 758 b 371 133 208 314 270 208 z "},"a":{"ha":992,"x_min":0,"x_max":0,"o":"m 588 442 b 129 169 297 442 129 357 b 372 -26 129 31 231 -26 b 719 76 494 -26 603 3 l 731 0 l 888 0 l 960 415 b 965 478 964 438 965 458 b 615 704 965 658 802 704 b 254 651 474 704 344 680 l 288 503 b 590 551 358 525 475 551 b 770 438 715 551 770 516 l 770 428 b 588 442 716 435 651 442 z m 330 190 b 580 308 330 242 375 308 b 749 300 632 308 696 305 l 738 233 b 426 126 619 162 505 126 b 330 190 358 126 330 147 z "},"à":{"ha":992,"x_min":0,"x_max":0,"o":"m 588 442 b 129 169 297 442 129 357 b 372 -26 129 31 231 -26 b 719 76 494 -26 603 3 l 731 0 l 888 0 l 960 415 b 965 478 964 438 965 458 b 615 704 965 658 802 704 b 254 651 474 704 344 680 l 288 503 b 590 551 358 525 475 551 b 770 438 715 551 770 516 l 770 428 b 588 442 716 435 651 442 z m 330 190 b 580 308 330 242 375 308 b 749 300 632 308 696 305 l 738 233 b 426 126 619 162 505 126 b 330 190 358 126 330 147 z m 474 964 l 656 755 l 772 845 l 599 1067 z "},"á":{"ha":992,"x_min":0,"x_max":0,"o":"m 588 442 b 129 169 297 442 129 357 b 372 -26 129 31 231 -26 b 719 76 494 -26 603 3 l 731 0 l 888 0 l 960 415 b 965 478 964 438 965 458 b 615 704 965 658 802 704 b 254 651 474 704 344 680 l 288 503 b 590 551 358 525 475 551 b 770 438 715 551 770 516 l 770 428 b 588 442 716 435 651 442 z m 330 190 b 580 308 330 242 375 308 b 749 300 632 308 696 305 l 738 233 b 426 126 619 162 505 126 b 330 190 358 126 330 147 z m 476 857 l 577 749 l 832 958 l 722 1079 z "},"â":{"ha":992,"x_min":0,"x_max":0,"o":"m 588 442 b 129 169 297 442 129 357 b 372 -26 129 31 231 -26 b 719 76 494 -26 603 3 l 731 0 l 888 0 l 960 415 b 965 478 964 438 965 458 b 615 704 965 658 802 704 b 254 651 474 704 344 680 l 288 503 b 590 551 358 525 475 551 b 770 438 715 551 770 516 l 770 428 b 588 442 716 435 651 442 z m 330 190 b 580 308 330 242 375 308 b 749 300 632 308 696 305 l 738 233 b 426 126 619 162 505 126 b 330 190 358 126 330 147 z m 408 838 l 508 751 l 649 913 l 738 753 l 859 819 l 744 1016 l 584 1016 z "},"ã":{"ha":992,"x_min":0,"x_max":0,"o":"m 588 442 b 129 169 297 442 129 357 b 372 -26 129 31 231 -26 b 719 76 494 -26 603 3 l 731 0 l 888 0 l 960 415 b 965 478 964 438 965 458 b 615 704 965 658 802 704 b 254 651 474 704 344 680 l 288 503 b 590 551 358 525 475 551 b 770 438 715 551 770 516 l 770 428 b 588 442 716 435 651 442 z m 330 190 b 580 308 330 242 375 308 b 749 300 632 308 696 305 l 738 233 b 426 126 619 162 505 126 b 330 190 358 126 330 147 z m 349 807 l 467 757 b 553 838 500 813 519 838 b 625 799 578 838 592 821 b 746 759 666 771 699 759 b 939 922 813 759 883 791 l 824 981 b 739 899 789 918 763 899 b 672 938 722 899 712 908 b 557 979 640 960 608 979 b 349 807 473 979 394 929 z "},"ä":{"ha":992,"x_min":0,"x_max":0,"o":"m 588 442 b 129 169 297 442 129 357 b 372 -26 129 31 231 -26 b 719 76 494 -26 603 3 l 731 0 l 888 0 l 960 415 b 965 478 964 438 965 458 b 615 704 965 658 802 704 b 254 651 474 704 344 680 l 288 503 b 590 551 358 525 475 551 b 770 438 715 551 770 516 l 770 428 b 588 442 716 435 651 442 z m 330 190 b 580 308 330 242 375 308 b 749 300 632 308 696 305 l 738 233 b 426 126 619 162 505 126 b 330 190 358 126 330 147 z m 362 778 l 560 778 l 592 960 l 393 960 z m 688 778 l 887 778 l 918 960 l 719 960 z "},"å":{"ha":992,"x_min":0,"x_max":0,"o":"m 588 442 b 129 169 297 442 129 357 b 372 -26 129 31 231 -26 b 719 76 494 -26 603 3 l 731 0 l 888 0 l 960 415 b 965 478 964 438 965 458 b 615 704 965 658 802 704 b 254 651 474 704 344 680 l 288 503 b 590 551 358 525 475 551 b 770 438 715 551 770 516 l 770 428 b 588 442 716 435 651 442 z m 330 190 b 580 308 330 242 375 308 b 749 300 632 308 696 305 l 738 233 b 426 126 619 162 505 126 b 330 190 358 126 330 147 z m 469 883 b 626 752 469 808 529 752 b 831 924 754 752 831 831 b 676 1057 831 1002 767 1057 b 469 883 549 1057 469 981 z m 581 894 b 661 965 581 939 613 965 b 719 917 702 965 719 948 b 640 846 719 871 685 846 b 581 894 599 846 581 863 z "},"ā":{"ha":992,"x_min":0,"x_max":0,"o":"m 588 442 b 129 169 297 442 129 357 b 372 -26 129 31 231 -26 b 719 76 494 -26 603 3 l 731 0 l 888 0 l 960 415 b 965 478 964 438 965 458 b 615 704 965 658 802 704 b 254 651 474 704 344 680 l 288 503 b 590 551 358 525 475 551 b 770 438 715 551 770 516 l 770 428 b 588 442 716 435 651 442 z m 330 190 b 580 308 330 242 375 308 b 749 300 632 308 696 305 l 738 233 b 426 126 619 162 505 126 b 330 190 358 126 330 147 z m 420 778 l 851 778 l 875 920 l 444 920 z "},"ă":{"ha":992,"x_min":0,"x_max":0,"o":"m 588 442 b 129 169 297 442 129 357 b 372 -26 129 31 231 -26 b 719 76 494 -26 603 3 l 731 0 l 888 0 l 960 415 b 965 478 964 438 965 458 b 615 704 965 658 802 704 b 254 651 474 704 344 680 l 288 503 b 590 551 358 525 475 551 b 770 438 715 551 770 516 l 770 428 b 588 442 716 435 651 442 z m 330 190 b 580 308 330 242 375 308 b 749 300 632 308 696 305 l 738 233 b 426 126 619 162 505 126 b 330 190 358 126 330 147 z m 420 953 b 623 752 420 827 495 752 b 900 978 774 752 858 834 l 749 999 b 637 879 726 897 678 879 b 565 978 599 879 565 892 b 565 996 565 984 565 990 l 422 984 b 420 953 421 974 420 963 z "},"ą":{"ha":992,"x_min":0,"x_max":0,"o":"m 888 0 l 960 415 b 965 478 964 438 965 458 b 615 704 965 658 802 704 b 254 651 474 704 344 680 l 288 503 b 590 551 358 525 475 551 b 770 438 715 551 770 516 l 770 428 b 588 442 716 435 651 442 b 129 169 297 442 129 357 b 372 -26 129 31 231 -26 b 719 76 494 -26 603 3 l 727 25 b 546 -157 609 -22 546 -78 b 723 -290 546 -243 613 -290 b 892 -255 787 -290 856 -269 l 869 -133 b 749 -160 821 -150 776 -160 b 712 -128 730 -160 712 -153 b 888 0 712 -99 744 -54 z m 330 190 b 580 308 330 242 375 308 b 749 300 632 308 696 305 l 738 233 b 426 126 619 162 505 126 b 330 190 358 126 330 147 z "},"ǻ":{"ha":992,"x_min":0,"x_max":0,"o":"m 531 1177 l 567 1068 l 843 1156 l 807 1273 z m 129 169 b 372 -26 129 31 231 -26 b 719 76 494 -26 603 3 l 731 0 l 888 0 l 960 415 b 965 478 964 438 965 458 b 615 704 965 658 802 704 b 254 651 474 704 344 680 l 288 503 b 590 551 358 525 475 551 b 770 438 715 551 770 516 l 770 428 b 588 442 716 435 651 442 b 129 169 297 442 129 357 z m 330 190 b 580 308 330 242 375 308 b 749 300 632 308 696 305 l 738 233 b 426 126 619 162 505 126 b 330 190 358 126 330 147 z m 468 877 b 624 746 468 801 528 746 b 830 918 753 746 830 824 b 674 1051 830 996 765 1051 b 468 877 547 1051 468 974 z m 579 888 b 660 958 579 933 611 958 b 718 910 701 958 718 942 b 639 840 718 865 684 840 b 579 888 597 840 579 856 z "},"b":{"ha":1012,"x_min":0,"x_max":0,"o":"m 546 -26 b 992 403 785 -26 992 92 b 683 703 992 613 847 703 b 418 631 566 703 476 666 l 478 982 l 285 982 l 115 0 l 251 0 l 297 76 b 546 -26 352 17 438 -26 z m 349 230 l 388 457 b 630 543 463 507 553 543 b 788 385 740 543 788 487 b 547 133 788 240 712 133 b 349 230 470 133 401 164 z "},"c":{"ha":926,"x_min":0,"x_max":0,"o":"m 499 -26 b 870 75 631 -26 742 3 l 798 228 b 527 133 711 174 615 133 b 338 295 417 133 338 175 b 611 543 338 467 472 543 b 865 471 694 543 777 511 l 938 631 b 622 703 852 669 751 703 b 135 276 353 703 135 554 b 499 -26 135 71 281 -26 z "},"ç":{"ha":926,"x_min":0,"x_max":0,"o":"m 315 -137 l 274 -257 b 451 -290 305 -270 375 -290 b 688 -108 624 -290 688 -226 b 648 -12 688 -72 674 -40 b 870 75 722 3 792 31 l 798 228 b 527 133 711 174 615 133 b 338 295 417 133 338 175 b 611 543 338 467 472 543 b 865 471 694 543 777 511 l 938 631 b 622 703 852 669 751 703 b 135 276 353 703 135 554 b 394 -18 135 106 235 10 b 527 -117 500 -58 527 -90 b 453 -162 527 -150 500 -162 b 315 -137 419 -162 361 -152 z "},"ć":{"ha":926,"x_min":0,"x_max":0,"o":"m 499 -26 b 870 75 631 -26 742 3 l 798 228 b 527 133 711 174 615 133 b 338 295 417 133 338 175 b 611 543 338 467 472 543 b 865 471 694 543 777 511 l 938 631 b 622 703 852 669 751 703 b 135 276 353 703 135 554 b 499 -26 135 71 281 -26 z m 497 857 l 599 749 l 853 958 l 743 1079 z "},"ĉ":{"ha":926,"x_min":0,"x_max":0,"o":"m 499 -26 b 870 75 631 -26 742 3 l 798 228 b 527 133 711 174 615 133 b 338 295 417 133 338 175 b 611 543 338 467 472 543 b 865 471 694 543 777 511 l 938 631 b 622 703 852 669 751 703 b 135 276 353 703 135 554 b 499 -26 135 71 281 -26 z m 413 838 l 514 751 l 654 913 l 743 753 l 865 819 l 749 1016 l 590 1016 z "},"ċ":{"ha":926,"x_min":0,"x_max":0,"o":"m 544 960 l 513 778 l 712 778 l 743 960 z m 135 276 b 499 -26 135 71 281 -26 b 870 75 631 -26 742 3 l 798 228 b 527 133 711 174 615 133 b 338 295 417 133 338 175 b 611 543 338 467 472 543 b 865 471 694 543 777 511 l 938 631 b 622 703 852 669 751 703 b 135 276 353 703 135 554 z "},"č":{"ha":926,"x_min":0,"x_max":0,"o":"m 499 -26 b 870 75 631 -26 742 3 l 798 228 b 527 133 711 174 615 133 b 338 295 417 133 338 175 b 611 543 338 467 472 543 b 865 471 694 543 777 511 l 938 631 b 622 703 852 669 751 703 b 135 276 353 703 135 554 b 499 -26 135 71 281 -26 z m 427 971 l 539 778 l 699 778 l 872 956 l 778 1044 l 633 877 l 545 1041 z "},"d":{"ha":1011,"x_min":0,"x_max":0,"o":"m 590 703 b 135 273 349 703 135 562 b 459 -26 135 72 270 -26 b 736 68 570 -26 667 20 l 746 0 l 895 0 l 1065 982 l 872 982 l 814 649 b 590 703 761 677 688 703 z m 338 291 b 581 543 338 450 445 543 b 788 494 651 543 711 526 l 742 229 b 505 133 664 169 574 133 b 338 291 395 133 338 186 z "},"ď":{"ha":1192,"x_min":0,"x_max":0,"o":"m 1195 997 l 1106 680 l 1269 647 l 1380 963 z m 135 273 b 459 -26 135 72 270 -26 b 736 68 570 -26 667 20 l 746 0 l 895 0 l 1065 982 l 872 982 l 814 649 b 590 703 761 677 688 703 b 135 273 349 703 135 562 z m 338 291 b 581 543 338 450 445 543 b 788 494 651 543 711 526 l 742 229 b 505 133 664 169 574 133 b 338 291 395 133 338 186 z "},"e":{"ha":939,"x_min":0,"x_max":0,"o":"m 487 -26 b 862 37 619 -26 738 -1 l 817 187 b 507 131 731 160 614 131 b 318 265 388 131 323 159 l 904 265 b 936 425 919 298 936 349 b 597 704 936 542 858 704 b 119 264 303 704 119 517 b 487 -26 119 73 244 -26 z m 339 394 b 582 554 371 482 452 554 b 747 423 674 554 733 517 b 750 394 749 414 749 404 z "},"è":{"ha":939,"x_min":0,"x_max":0,"o":"m 435 964 l 617 755 l 733 845 l 560 1067 z m 119 264 b 487 -26 119 73 244 -26 b 862 37 619 -26 738 -1 l 817 187 b 507 131 731 160 614 131 b 318 265 388 131 323 159 l 904 265 b 936 425 919 298 936 349 b 597 704 936 542 858 704 b 119 264 303 704 119 517 z m 339 394 b 582 554 371 482 452 554 b 747 423 674 554 733 517 b 750 394 749 414 749 404 z "},"é":{"ha":939,"x_min":0,"x_max":0,"o":"m 487 -26 b 862 37 619 -26 738 -1 l 817 187 b 507 131 731 160 614 131 b 318 265 388 131 323 159 l 904 265 b 936 425 919 298 936 349 b 597 704 936 542 858 704 b 119 264 303 704 119 517 b 487 -26 119 73 244 -26 z m 339 394 b 582 554 371 482 452 554 b 747 423 674 554 733 517 b 750 394 749 414 749 404 z m 500 857 l 601 749 l 856 958 l 746 1079 z "},"ê":{"ha":939,"x_min":0,"x_max":0,"o":"m 376 838 l 477 751 l 617 913 l 706 753 l 828 819 l 713 1016 l 553 1016 z m 119 264 b 487 -26 119 73 244 -26 b 862 37 619 -26 738 -1 l 817 187 b 507 131 731 160 614 131 b 318 265 388 131 323 159 l 904 265 b 936 425 919 298 936 349 b 597 704 936 542 858 704 b 119 264 303 704 119 517 z m 339 394 b 582 554 371 482 452 554 b 747 423 674 554 733 517 b 750 394 749 414 749 404 z "},"ë":{"ha":939,"x_min":0,"x_max":0,"o":"m 382 960 l 351 778 l 549 778 l 581 960 z m 119 264 b 487 -26 119 73 244 -26 b 862 37 619 -26 738 -1 l 817 187 b 507 131 731 160 614 131 b 318 265 388 131 323 159 l 904 265 b 936 425 919 298 936 349 b 597 704 936 542 858 704 b 119 264 303 704 119 517 z m 339 394 b 582 554 371 482 452 554 b 747 423 674 554 733 517 b 750 394 749 414 749 404 z m 677 778 l 876 778 l 907 960 l 708 960 z "},"ē":{"ha":939,"x_min":0,"x_max":0,"o":"m 487 -26 b 862 37 619 -26 738 -1 l 817 187 b 507 131 731 160 614 131 b 318 265 388 131 323 159 l 904 265 b 936 425 919 298 936 349 b 597 704 936 542 858 704 b 119 264 303 704 119 517 b 487 -26 119 73 244 -26 z m 339 394 b 582 554 371 482 452 554 b 747 423 674 554 733 517 b 750 394 749 414 749 404 z m 385 778 l 816 778 l 840 920 l 410 920 z "},"ĕ":{"ha":939,"x_min":0,"x_max":0,"o":"m 487 -26 b 862 37 619 -26 738 -1 l 817 187 b 507 131 731 160 614 131 b 318 265 388 131 323 159 l 904 265 b 936 425 919 298 936 349 b 597 704 936 542 858 704 b 119 264 303 704 119 517 b 487 -26 119 73 244 -26 z m 339 394 b 582 554 371 482 452 554 b 747 423 674 554 733 517 b 750 394 749 414 749 404 z m 411 953 b 614 752 411 827 486 752 b 891 978 765 752 849 834 l 740 999 b 628 879 717 897 669 879 b 556 978 590 879 556 892 b 556 996 556 984 556 990 l 413 984 b 411 953 412 974 411 963 z "},"ė":{"ha":939,"x_min":0,"x_max":0,"o":"m 537 960 l 506 778 l 704 778 l 735 960 z m 119 264 b 487 -26 119 73 244 -26 b 862 37 619 -26 738 -1 l 817 187 b 507 131 731 160 614 131 b 318 265 388 131 323 159 l 904 265 b 936 425 919 298 936 349 b 597 704 936 542 858 704 b 119 264 303 704 119 517 z m 339 394 b 582 554 371 482 452 554 b 747 423 674 554 733 517 b 750 394 749 414 749 404 z "},"ę":{"ha":966,"x_min":0,"x_max":0,"o":"m 862 37 l 817 187 b 507 131 731 160 614 131 b 318 265 388 131 323 159 l 904 265 b 936 425 919 298 936 349 b 597 704 936 542 858 704 b 119 264 303 704 119 517 b 474 -26 119 76 240 -23 b 413 -157 434 -63 413 -106 b 597 -290 413 -243 482 -290 b 797 -255 675 -290 754 -269 l 774 -133 b 624 -160 713 -150 661 -160 b 579 -128 596 -160 579 -153 b 844 31 579 -92 625 -36 z m 339 394 b 582 554 371 482 452 554 b 747 423 674 554 733 517 b 750 394 749 414 749 404 z "},"ě":{"ha":939,"x_min":0,"x_max":0,"o":"m 487 -26 b 862 37 619 -26 738 -1 l 817 187 b 507 131 731 160 614 131 b 318 265 388 131 323 159 l 904 265 b 936 425 919 298 936 349 b 597 704 936 542 858 704 b 119 264 303 704 119 517 b 487 -26 119 73 244 -26 z m 339 394 b 582 554 371 482 452 554 b 747 423 674 554 733 517 b 750 394 749 414 749 404 z m 418 971 l 530 778 l 690 778 l 863 956 l 769 1044 l 624 877 l 536 1041 z "},"f":{"ha":744,"x_min":0,"x_max":0,"o":"m 285 521 l 194 0 l 388 0 l 478 521 l 815 521 l 842 674 l 504 674 l 517 747 b 672 859 531 828 576 859 b 870 822 723 859 808 841 l 924 977 b 676 1018 862 996 774 1018 b 326 761 515 1018 360 969 l 311 674 l 173 674 l 147 521 z "},"g":{"ha":1031,"x_min":0,"x_max":0,"o":"m 142 -69 l 82 -228 b 427 -290 164 -262 272 -290 b 920 29 728 -290 883 -183 l 1032 674 l 882 674 l 856 630 b 600 703 797 670 711 703 b 162 294 371 703 162 575 b 481 15 162 94 298 15 b 738 93 583 15 671 51 l 728 33 b 446 -131 711 -64 603 -131 b 142 -69 315 -131 217 -105 z m 364 319 b 604 543 364 457 467 543 b 806 488 689 543 745 524 l 769 271 b 525 174 693 209 606 174 b 364 319 423 174 364 209 z "},"ĝ":{"ha":1031,"x_min":0,"x_max":0,"o":"m 424 838 l 524 751 l 665 913 l 753 753 l 875 819 l 760 1016 l 600 1016 z m 82 -228 b 427 -290 164 -262 272 -290 b 920 29 728 -290 883 -183 l 1032 674 l 882 674 l 856 630 b 600 703 797 670 711 703 b 162 294 371 703 162 575 b 481 15 162 94 298 15 b 738 93 583 15 671 51 l 728 33 b 446 -131 711 -64 603 -131 b 142 -69 315 -131 217 -105 z m 364 319 b 604 543 364 457 467 543 b 806 488 689 543 745 524 l 769 271 b 525 174 693 209 606 174 b 364 319 423 174 364 209 z "},"ğ":{"ha":1031,"x_min":0,"x_max":0,"o":"m 142 -69 l 82 -228 b 427 -290 164 -262 272 -290 b 920 29 728 -290 883 -183 l 1032 674 l 882 674 l 856 630 b 600 703 797 670 711 703 b 162 294 371 703 162 575 b 481 15 162 94 298 15 b 738 93 583 15 671 51 l 728 33 b 446 -131 711 -64 603 -131 b 142 -69 315 -131 217 -105 z m 364 319 b 604 543 364 457 467 543 b 806 488 689 543 745 524 l 769 271 b 525 174 693 209 606 174 b 364 319 423 174 364 209 z m 427 953 b 630 752 427 827 502 752 b 907 978 781 752 865 834 l 756 999 b 644 879 733 897 685 879 b 572 978 606 879 572 892 b 572 996 572 984 572 990 l 428 984 b 427 953 428 974 427 963 z "},"ġ":{"ha":1031,"x_min":0,"x_max":0,"o":"m 574 960 l 543 778 l 742 778 l 773 960 z m 82 -228 b 427 -290 164 -262 272 -290 b 920 29 728 -290 883 -183 l 1032 674 l 882 674 l 856 630 b 600 703 797 670 711 703 b 162 294 371 703 162 575 b 481 15 162 94 298 15 b 738 93 583 15 671 51 l 728 33 b 446 -131 711 -64 603 -131 b 142 -69 315 -131 217 -105 z m 364 319 b 604 543 364 457 467 543 b 806 488 689 543 745 524 l 769 271 b 525 174 693 209 606 174 b 364 319 423 174 364 209 z "},"ģ":{"ha":1031,"x_min":0,"x_max":0,"o":"m 706 1124 l 553 949 l 527 797 l 729 797 l 754 943 l 686 943 l 774 1076 z m 82 -228 b 427 -290 164 -262 272 -290 b 920 29 728 -290 883 -183 l 1032 674 l 882 674 l 856 630 b 600 703 797 670 711 703 b 162 294 371 703 162 575 b 481 15 162 94 298 15 b 738 93 583 15 671 51 l 728 33 b 446 -131 711 -64 603 -131 b 142 -69 315 -131 217 -105 z m 364 319 b 604 543 364 457 467 543 b 806 488 689 543 745 524 l 769 271 b 525 174 693 209 606 174 b 364 319 423 174 364 209 z "},"h":{"ha":1011,"x_min":0,"x_max":0,"o":"m 285 983 l 115 0 l 308 0 l 384 438 b 676 544 436 470 563 544 b 788 445 747 544 788 515 b 785 405 788 433 788 419 l 715 0 l 908 0 l 979 416 b 986 492 984 444 986 469 b 719 704 986 656 871 704 b 413 605 599 704 487 652 l 478 983 z "},"ĥ":{"ha":1011,"x_min":0,"x_max":0,"o":"m 452 1085 l 548 983 l 711 1110 l 831 983 l 947 1087 l 789 1232 l 661 1232 z m 115 0 l 308 0 l 384 438 b 676 544 436 470 563 544 b 788 445 747 544 788 515 b 785 405 788 433 788 419 l 715 0 l 908 0 l 979 416 b 986 492 984 444 986 469 b 719 704 986 656 871 704 b 413 605 599 704 487 652 l 478 983 l 285 983 z "},"i":{"ha":424,"x_min":0,"x_max":0,"o":"m 232 674 l 115 0 l 308 0 l 425 674 z m 250 778 l 443 778 l 474 960 l 281 960 z "},"ì":{"ha":429,"x_min":0,"x_max":0,"o":"m 158 964 l 340 755 l 456 845 l 283 1067 z m 118 0 l 311 0 l 428 674 l 235 674 z "},"í":{"ha":429,"x_min":0,"x_max":0,"o":"m 235 674 l 118 0 l 311 0 l 428 674 z m 247 857 l 349 749 l 603 958 l 493 1079 z "},"î":{"ha":429,"x_min":0,"x_max":0,"o":"m 120 838 l 221 751 l 361 913 l 450 753 l 572 819 l 456 1016 l 297 1016 z m 118 0 l 311 0 l 428 674 l 235 674 z "},"ï":{"ha":429,"x_min":0,"x_max":0,"o":"m 118 960 l 87 778 l 285 778 l 317 960 z m 118 0 l 311 0 l 428 674 l 235 674 z m 413 778 l 612 778 l 643 960 l 444 960 z "},"ĩ":{"ha":429,"x_min":0,"x_max":0,"o":"m 235 674 l 118 0 l 311 0 l 428 674 z m 65 807 l 183 757 b 269 838 215 813 235 838 b 340 799 294 838 308 821 b 461 759 381 771 415 759 b 654 922 528 759 598 791 l 540 981 b 454 899 504 918 478 899 b 387 938 438 899 427 908 b 272 979 355 960 323 979 b 65 807 188 979 109 929 z "},"ī":{"ha":429,"x_min":0,"x_max":0,"o":"m 235 674 l 118 0 l 311 0 l 428 674 z m 135 778 l 566 778 l 590 920 l 160 920 z "},"ĭ":{"ha":429,"x_min":0,"x_max":0,"o":"m 235 674 l 118 0 l 311 0 l 428 674 z m 144 953 b 347 752 144 827 219 752 b 624 978 498 752 583 834 l 473 999 b 361 879 451 897 402 879 b 289 978 324 879 289 892 b 290 996 289 984 290 990 l 146 984 b 144 953 145 974 144 963 z "},"į":{"ha":424,"x_min":0,"x_max":0,"o":"m 154 -290 b 354 -255 232 -290 311 -269 l 331 -133 b 181 -160 269 -150 218 -160 b 136 -128 153 -160 136 -153 b 308 0 136 -99 168 -58 l 425 674 l 232 674 l 119 20 b -30 -157 18 -26 -30 -81 b 154 -290 -30 -243 39 -290 z m 250 778 l 443 778 l 474 960 l 281 960 z "},"j":{"ha":506,"x_min":0,"x_max":0,"o":"m -6 -121 l 8 -290 b 390 -6 244 -249 361 -170 l 507 674 l 314 674 l 203 35 b -6 -121 188 -53 93 -97 z m 332 778 l 525 778 l 556 960 l 363 960 z "},"ĵ":{"ha":515,"x_min":0,"x_max":0,"o":"m 203 35 b -6 -121 188 -53 93 -97 l 8 -290 b 390 -6 244 -249 361 -170 l 507 674 l 314 674 z m 199 838 l 300 751 l 440 913 l 529 753 l 651 819 l 535 1016 l 376 1016 z "},"k":{"ha":953,"x_min":0,"x_max":0,"o":"m 565 301 l 766 -37 l 920 58 l 715 405 l 977 580 l 885 716 l 372 369 l 478 982 l 285 982 l 115 0 l 308 0 l 333 144 z "},"ķ":{"ha":953,"x_min":0,"x_max":0,"o":"m 409 -428 l 561 -253 l 588 -102 l 385 -102 l 360 -248 l 428 -248 l 340 -381 z m 115 0 l 308 0 l 333 144 l 565 301 l 766 -37 l 920 58 l 715 405 l 977 580 l 885 716 l 372 369 l 478 982 l 285 982 z "},"l":{"ha":424,"x_min":0,"x_max":0,"o":"m 285 982 l 115 0 l 308 0 l 478 982 z "},"ĺ":{"ha":424,"x_min":0,"x_max":0,"o":"m 292 1147 l 361 1019 l 694 1175 l 624 1317 z m 115 0 l 308 0 l 478 982 l 285 982 z "},"ļ":{"ha":424,"x_min":0,"x_max":0,"o":"m 125 -428 l 277 -253 l 303 -102 l 101 -102 l 76 -248 l 144 -248 l 56 -381 z m 115 0 l 308 0 l 478 982 l 285 982 z "},"ľ":{"ha":602,"x_min":0,"x_max":0,"o":"m 605 997 l 515 679 l 679 646 l 790 962 z m 115 0 l 308 0 l 477 982 l 284 982 z "},"m":{"ha":1496,"x_min":0,"x_max":0,"o":"m 232 674 l 115 0 l 308 0 l 384 438 b 663 544 433 470 554 544 b 760 444 724 544 760 515 b 757 405 760 432 759 419 l 687 0 l 880 0 l 963 478 b 1175 544 1022 510 1101 544 b 1272 444 1236 544 1272 515 b 1269 405 1272 432 1272 419 l 1199 0 l 1392 0 l 1464 416 b 1470 491 1468 443 1470 469 b 1217 704 1470 656 1361 704 b 931 609 1106 704 1002 655 b 705 704 890 680 806 704 b 399 597 583 704 470 645 l 391 674 z "},"n":{"ha":1011,"x_min":0,"x_max":0,"o":"m 232 674 l 115 0 l 308 0 l 384 438 b 676 544 436 470 563 544 b 788 445 747 544 788 515 b 785 405 788 433 788 419 l 715 0 l 908 0 l 979 416 b 986 492 984 444 986 469 b 719 704 986 656 871 704 b 399 597 592 704 474 645 l 391 674 z "},"ñ":{"ha":1011,"x_min":0,"x_max":0,"o":"m 232 674 l 115 0 l 308 0 l 384 438 b 676 544 436 470 563 544 b 788 445 747 544 788 515 b 785 405 788 433 788 419 l 715 0 l 908 0 l 979 416 b 986 492 984 444 986 469 b 719 704 986 656 871 704 b 399 597 592 704 474 645 l 391 674 z m 374 807 l 492 757 b 578 838 524 813 544 838 b 649 799 603 838 617 821 b 770 759 690 771 724 759 b 963 922 838 759 907 791 l 849 981 b 763 899 813 918 787 899 b 696 938 747 899 736 908 b 581 979 664 960 632 979 b 374 807 497 979 418 929 z "},"ń":{"ha":1011,"x_min":0,"x_max":0,"o":"m 515 857 l 616 749 l 871 958 l 760 1079 z m 115 0 l 308 0 l 384 438 b 676 544 436 470 563 544 b 788 445 747 544 788 515 b 785 405 788 433 788 419 l 715 0 l 908 0 l 979 416 b 986 492 984 444 986 469 b 719 704 986 656 871 704 b 399 597 592 704 474 645 l 391 674 l 232 674 z "},"ņ":{"ha":1011,"x_min":0,"x_max":0,"o":"m 423 -428 l 575 -253 l 601 -102 l 399 -102 l 374 -248 l 442 -248 l 354 -381 z m 115 0 l 308 0 l 384 438 b 676 544 436 470 563 544 b 788 445 747 544 788 515 b 785 405 788 433 788 419 l 715 0 l 908 0 l 979 416 b 986 492 984 444 986 469 b 719 704 986 656 871 704 b 399 597 592 704 474 645 l 391 674 l 232 674 z "},"ň":{"ha":1011,"x_min":0,"x_max":0,"o":"m 457 971 l 569 778 l 728 778 l 901 956 l 808 1044 l 663 877 l 575 1041 z m 115 0 l 308 0 l 384 438 b 676 544 436 470 563 544 b 788 445 747 544 788 515 b 785 405 788 433 788 419 l 715 0 l 908 0 l 979 416 b 986 492 984 444 986 469 b 719 704 986 656 871 704 b 399 597 592 704 474 645 l 391 674 l 232 674 z "},"o":{"ha":1037,"x_min":0,"x_max":0,"o":"m 634 704 b 136 283 373 704 136 557 b 519 -26 136 86 289 -26 b 1017 390 793 -26 1017 124 b 634 704 1017 594 847 704 z m 338 307 b 612 544 338 453 463 544 b 815 371 733 544 815 484 b 541 133 815 229 685 133 b 338 307 413 133 338 193 z "},"ò":{"ha":1037,"x_min":0,"x_max":0,"o":"m 447 964 l 630 755 l 746 845 l 573 1067 z m 136 283 b 519 -26 136 86 289 -26 b 1017 390 793 -26 1017 124 b 634 704 1017 594 847 704 b 136 283 373 704 136 557 z m 338 307 b 612 544 338 453 463 544 b 815 371 733 544 815 484 b 541 133 815 229 685 133 b 338 307 413 133 338 193 z "},"ó":{"ha":1037,"x_min":0,"x_max":0,"o":"m 540 857 l 641 749 l 896 958 l 785 1079 z m 136 283 b 519 -26 136 86 289 -26 b 1017 390 793 -26 1017 124 b 634 704 1017 594 847 704 b 136 283 373 704 136 557 z m 338 307 b 612 544 338 453 463 544 b 815 371 733 544 815 484 b 541 133 815 229 685 133 b 338 307 413 133 338 193 z "},"ô":{"ha":1037,"x_min":0,"x_max":0,"o":"m 419 838 l 520 751 l 660 913 l 749 753 l 871 819 l 756 1016 l 596 1016 z m 136 283 b 519 -26 136 86 289 -26 b 1017 390 793 -26 1017 124 b 634 704 1017 594 847 704 b 136 283 373 704 136 557 z m 338 307 b 612 544 338 453 463 544 b 815 371 733 544 815 484 b 541 133 815 229 685 133 b 338 307 413 133 338 193 z "},"õ":{"ha":1037,"x_min":0,"x_max":0,"o":"m 634 704 b 136 283 373 704 136 557 b 519 -26 136 86 289 -26 b 1017 390 793 -26 1017 124 b 634 704 1017 594 847 704 z m 338 307 b 612 544 338 453 463 544 b 815 371 733 544 815 484 b 541 133 815 229 685 133 b 338 307 413 133 338 193 z m 356 807 l 474 757 b 560 838 507 813 526 838 b 632 799 585 838 599 821 b 753 759 673 771 706 759 b 946 922 820 759 890 791 l 831 981 b 746 899 796 918 769 899 b 678 938 729 899 719 908 b 564 979 647 960 615 979 b 356 807 480 979 401 929 z "},"ö":{"ha":1037,"x_min":0,"x_max":0,"o":"m 407 960 l 376 778 l 574 778 l 606 960 z m 136 283 b 519 -26 136 86 289 -26 b 1017 390 793 -26 1017 124 b 634 704 1017 594 847 704 b 136 283 373 704 136 557 z m 338 307 b 612 544 338 453 463 544 b 815 371 733 544 815 484 b 541 133 815 229 685 133 b 338 307 413 133 338 193 z m 702 778 l 901 778 l 932 960 l 733 960 z "},"ō":{"ha":1037,"x_min":0,"x_max":0,"o":"m 634 704 b 136 283 373 704 136 557 b 519 -26 136 86 289 -26 b 1017 390 793 -26 1017 124 b 634 704 1017 594 847 704 z m 338 307 b 612 544 338 453 463 544 b 815 371 733 544 815 484 b 541 133 815 229 685 133 b 338 307 413 133 338 193 z m 422 778 l 853 778 l 877 920 l 447 920 z "},"ŏ":{"ha":1037,"x_min":0,"x_max":0,"o":"m 634 704 b 136 283 373 704 136 557 b 519 -26 136 86 289 -26 b 1017 390 793 -26 1017 124 b 634 704 1017 594 847 704 z m 338 307 b 612 544 338 453 463 544 b 815 371 733 544 815 484 b 541 133 815 229 685 133 b 338 307 413 133 338 193 z m 433 953 b 635 752 433 827 508 752 b 913 978 786 752 871 834 l 761 999 b 649 879 739 897 690 879 b 577 978 612 879 577 892 b 578 996 577 984 578 990 l 434 984 b 433 953 433 974 433 963 z "},"ő":{"ha":1037,"x_min":0,"x_max":0,"o":"m 412 827 l 531 740 l 731 974 l 602 1076 z m 136 283 b 519 -26 136 86 289 -26 b 1017 390 793 -26 1017 124 b 634 704 1017 594 847 704 b 136 283 373 704 136 557 z m 338 307 b 612 544 338 453 463 544 b 815 371 733 544 815 484 b 541 133 815 229 685 133 b 338 307 413 133 338 193 z m 715 843 l 824 743 l 1047 960 l 931 1072 z "},"p":{"ha":1012,"x_min":0,"x_max":0,"o":"m 232 674 l 68 -274 l 261 -274 l 317 55 b 546 -26 373 6 450 -26 b 992 403 785 -26 992 92 b 683 703 992 613 847 703 b 396 618 548 703 453 656 l 392 674 z m 348 230 l 387 457 b 630 543 463 507 552 543 b 788 385 740 543 788 487 b 547 133 788 240 712 133 b 348 230 470 133 401 164 z "},"q":{"ha":1006,"x_min":0,"x_max":0,"o":"m 459 -26 b 706 49 555 -26 640 8 l 650 -274 l 843 -274 l 1007 674 l 858 674 l 835 636 b 590 703 782 669 701 703 b 135 273 349 703 135 562 b 459 -26 135 72 270 -26 z m 338 291 b 581 543 338 450 445 543 b 783 495 649 543 709 527 l 736 225 b 505 133 660 167 573 133 b 338 291 395 133 338 186 z "},"r":{"ha":669,"x_min":0,"x_max":0,"o":"m 116 0 l 309 0 l 382 413 b 747 519 514 478 626 508 l 719 703 b 396 568 605 688 494 638 l 387 674 l 232 674 z "},"ŕ":{"ha":669,"x_min":0,"x_max":0,"o":"m 116 0 l 309 0 l 382 413 b 747 519 514 478 626 508 l 719 703 b 396 568 605 688 494 638 l 387 674 l 232 674 z m 379 857 l 481 749 l 735 958 l 625 1079 z "},"ŗ":{"ha":669,"x_min":0,"x_max":0,"o":"m 121 -428 l 273 -253 l 299 -102 l 97 -102 l 72 -248 l 140 -248 l 52 -381 z m 116 0 l 309 0 l 382 413 b 747 519 514 478 626 508 l 719 703 b 396 568 605 688 494 638 l 387 674 l 232 674 z "},"ř":{"ha":669,"x_min":0,"x_max":0,"o":"m 116 0 l 309 0 l 382 413 b 747 519 514 478 626 508 l 719 703 b 396 568 605 688 494 638 l 387 674 l 232 674 z m 306 971 l 417 778 l 577 778 l 750 956 l 657 1044 l 512 877 l 424 1041 z "},"s":{"ha":862,"x_min":0,"x_max":0,"o":"m 122 187 l 76 33 b 408 -26 143 5 275 -26 b 832 247 678 -26 832 32 b 510 429 832 409 653 421 b 335 488 415 435 335 440 b 528 557 335 528 384 557 b 798 513 597 557 700 542 l 840 667 b 525 704 771 684 658 704 b 149 459 296 704 149 633 b 431 276 149 307 296 284 b 653 217 546 269 653 272 b 426 128 653 150 547 128 b 122 187 309 128 201 156 z "},"ś":{"ha":862,"x_min":0,"x_max":0,"o":"m 122 187 l 76 33 b 408 -26 143 5 275 -26 b 832 247 678 -26 832 32 b 510 429 832 409 653 421 b 335 488 415 435 335 440 b 528 557 335 528 384 557 b 798 513 597 557 700 542 l 840 667 b 525 704 771 684 658 704 b 149 459 296 704 149 633 b 431 276 149 307 296 284 b 653 217 546 269 653 272 b 426 128 653 150 547 128 b 122 187 309 128 201 156 z m 394 857 l 496 749 l 751 958 l 640 1079 z "},"ŝ":{"ha":862,"x_min":0,"x_max":0,"o":"m 122 187 l 76 33 b 408 -26 143 5 275 -26 b 832 247 678 -26 832 32 b 510 429 832 409 653 421 b 335 488 415 435 335 440 b 528 557 335 528 384 557 b 798 513 597 557 700 542 l 840 667 b 525 704 771 684 658 704 b 149 459 296 704 149 633 b 431 276 149 307 296 284 b 653 217 546 269 653 272 b 426 128 653 150 547 128 b 122 187 309 128 201 156 z m 336 838 l 437 751 l 577 913 l 666 753 l 788 819 l 672 1016 l 513 1016 z "},"ş":{"ha":862,"x_min":0,"x_max":0,"o":"m 122 187 l 76 33 b 306 -21 126 13 211 -10 b 432 -117 406 -59 432 -91 b 358 -162 432 -150 405 -162 b 220 -137 324 -162 266 -152 l 178 -257 b 356 -290 210 -270 280 -290 b 592 -108 528 -290 592 -226 b 559 -18 592 -74 581 -44 b 832 247 735 4 832 76 b 510 429 832 409 653 421 b 335 488 415 435 335 440 b 528 557 335 528 384 557 b 798 513 597 557 700 542 l 840 667 b 525 704 771 684 658 704 b 149 459 296 704 149 633 b 431 276 149 307 296 284 b 653 217 546 269 653 272 b 426 128 653 150 547 128 b 122 187 309 128 201 156 z "},"š":{"ha":862,"x_min":0,"x_max":0,"o":"m 122 187 l 76 33 b 408 -26 143 5 275 -26 b 832 247 678 -26 832 32 b 510 429 832 409 653 421 b 335 488 415 435 335 440 b 528 557 335 528 384 557 b 798 513 597 557 700 542 l 840 667 b 525 704 771 684 658 704 b 149 459 296 704 149 633 b 431 276 149 307 296 284 b 653 217 546 269 653 272 b 426 128 653 150 547 128 b 122 187 309 128 201 156 z m 346 971 l 458 778 l 617 778 l 790 956 l 697 1044 l 552 877 l 464 1041 z "},"ș":{"ha":862,"x_min":0,"x_max":0,"o":"m 357 -428 l 509 -253 l 535 -102 l 333 -102 l 308 -248 l 376 -248 l 288 -381 z m 76 33 b 408 -26 143 5 275 -26 b 832 247 678 -26 832 32 b 510 429 832 409 653 421 b 335 488 415 435 335 440 b 528 557 335 528 384 557 b 798 513 597 557 700 542 l 840 667 b 525 704 771 684 658 704 b 149 459 296 704 149 633 b 431 276 149 307 296 284 b 653 217 546 269 653 272 b 426 128 653 150 547 128 b 122 187 309 128 201 156 z "},"t":{"ha":806,"x_min":0,"x_max":0,"o":"m 469 -26 b 757 28 549 -26 685 3 l 722 178 b 492 133 656 156 566 133 b 424 197 455 133 424 147 b 426 224 424 205 425 214 l 476 515 l 804 515 l 832 674 l 504 674 l 535 856 l 342 856 l 311 674 l 159 674 l 131 515 l 283 515 l 232 217 b 226 148 228 192 226 169 b 469 -26 226 6 325 -26 z "},"ţ":{"ha":806,"x_min":0,"x_max":0,"o":"m 340 -428 l 492 -253 l 519 -102 l 317 -102 l 292 -248 l 360 -248 l 272 -381 z m 131 515 l 283 515 l 232 217 b 226 148 228 192 226 169 b 469 -26 226 6 325 -26 b 757 28 549 -26 685 3 l 722 178 b 492 133 656 156 566 133 b 424 197 455 133 424 147 b 426 224 424 205 425 214 l 476 515 l 804 515 l 832 674 l 504 674 l 535 856 l 342 856 l 311 674 l 159 674 z "},"ť":{"ha":806,"x_min":0,"x_max":0,"o":"m 669 1102 l 579 785 l 743 751 l 853 1067 z m 131 515 l 283 515 l 232 217 b 226 148 228 192 226 169 b 469 -26 226 6 325 -26 b 757 28 549 -26 685 3 l 722 178 b 492 133 656 156 566 133 b 424 197 455 133 424 147 b 426 224 424 205 425 214 l 476 515 l 804 515 l 832 674 l 504 674 l 535 856 l 342 856 l 311 674 l 159 674 z "},"ț":{"ha":806,"x_min":0,"x_max":0,"o":"m 356 -428 l 508 -253 l 535 -102 l 333 -102 l 308 -248 l 376 -248 l 288 -381 z m 131 515 l 283 515 l 232 217 b 226 148 228 192 226 169 b 469 -26 226 6 325 -26 b 757 28 549 -26 685 3 l 722 178 b 492 133 656 156 566 133 b 424 197 455 133 424 147 b 426 224 424 205 425 214 l 476 515 l 804 515 l 832 674 l 504 674 l 535 856 l 342 856 l 311 674 l 159 674 z "},"u":{"ha":1018,"x_min":0,"x_max":0,"o":"m 165 310 b 155 210 158 274 155 240 b 427 -26 155 17 284 -26 b 747 81 544 -26 649 13 l 754 0 l 907 0 l 1024 674 l 831 674 l 758 252 b 471 132 690 189 572 132 b 353 246 395 132 353 153 b 363 338 353 271 356 301 l 421 674 l 228 674 z "},"ù":{"ha":1018,"x_min":0,"x_max":0,"o":"m 453 964 l 636 755 l 752 845 l 579 1067 z m 155 210 b 427 -26 155 17 284 -26 b 747 81 544 -26 649 13 l 754 0 l 907 0 l 1024 674 l 831 674 l 758 252 b 471 132 690 189 572 132 b 353 246 395 132 353 153 b 363 338 353 271 356 301 l 421 674 l 228 674 l 165 310 b 155 210 158 274 155 240 z "},"ú":{"ha":1018,"x_min":0,"x_max":0,"o":"m 165 310 b 155 210 158 274 155 240 b 427 -26 155 17 284 -26 b 747 81 544 -26 649 13 l 754 0 l 907 0 l 1024 674 l 831 674 l 758 252 b 471 132 690 189 572 132 b 353 246 395 132 353 153 b 363 338 353 271 356 301 l 421 674 l 228 674 z m 545 857 l 647 749 l 901 958 l 791 1079 z "},"û":{"ha":1018,"x_min":0,"x_max":0,"o":"m 420 838 l 521 751 l 661 913 l 750 753 l 872 819 l 756 1016 l 597 1016 z m 155 210 b 427 -26 155 17 284 -26 b 747 81 544 -26 649 13 l 754 0 l 907 0 l 1024 674 l 831 674 l 758 252 b 471 132 690 189 572 132 b 353 246 395 132 353 153 b 363 338 353 271 356 301 l 421 674 l 228 674 l 165 310 b 155 210 158 274 155 240 z "},"ü":{"ha":1018,"x_min":0,"x_max":0,"o":"m 415 960 l 384 778 l 583 778 l 614 960 z m 155 210 b 427 -26 155 17 284 -26 b 747 81 544 -26 649 13 l 754 0 l 907 0 l 1024 674 l 831 674 l 758 252 b 471 132 690 189 572 132 b 353 246 395 132 353 153 b 363 338 353 271 356 301 l 421 674 l 228 674 l 165 310 b 155 210 158 274 155 240 z m 710 778 l 909 778 l 940 960 l 742 960 z "},"ũ":{"ha":1018,"x_min":0,"x_max":0,"o":"m 165 310 b 155 210 158 274 155 240 b 427 -26 155 17 284 -26 b 747 81 544 -26 649 13 l 754 0 l 907 0 l 1024 674 l 831 674 l 758 252 b 471 132 690 189 572 132 b 353 246 395 132 353 153 b 363 338 353 271 356 301 l 421 674 l 228 674 z m 363 807 l 481 757 b 567 838 513 813 533 838 b 638 799 592 838 606 821 b 759 759 679 771 713 759 b 952 922 826 759 896 791 l 838 981 b 752 899 802 918 776 899 b 685 938 735 899 725 908 b 570 979 653 960 621 979 b 363 807 486 979 407 929 z "},"ū":{"ha":1018,"x_min":0,"x_max":0,"o":"m 165 310 b 155 210 158 274 155 240 b 427 -26 155 17 284 -26 b 747 81 544 -26 649 13 l 754 0 l 907 0 l 1024 674 l 831 674 l 758 252 b 471 132 690 189 572 132 b 353 246 395 132 353 153 b 363 338 353 271 356 301 l 421 674 l 228 674 z m 422 778 l 852 778 l 876 920 l 446 920 z "},"ŭ":{"ha":1018,"x_min":0,"x_max":0,"o":"m 165 310 b 155 210 158 274 155 240 b 427 -26 155 17 284 -26 b 747 81 544 -26 649 13 l 754 0 l 907 0 l 1024 674 l 831 674 l 758 252 b 471 132 690 189 572 132 b 353 246 395 132 353 153 b 363 338 353 271 356 301 l 421 674 l 228 674 z m 434 953 b 637 752 434 827 509 752 b 914 978 788 752 872 834 l 763 999 b 651 879 740 897 692 879 b 578 978 613 879 578 892 b 579 996 578 984 579 990 l 435 984 b 434 953 435 974 434 963 z "},"ů":{"ha":1018,"x_min":0,"x_max":0,"o":"m 165 310 b 155 210 158 274 155 240 b 427 -26 155 17 284 -26 b 747 81 544 -26 649 13 l 754 0 l 907 0 l 1024 674 l 831 674 l 758 252 b 471 132 690 189 572 132 b 353 246 395 132 353 153 b 363 338 353 271 356 301 l 421 674 l 228 674 z m 474 883 b 630 752 474 808 533 752 b 835 924 758 752 835 831 b 680 1057 835 1002 771 1057 b 474 883 553 1057 474 981 z m 585 894 b 665 965 585 939 617 965 b 724 917 706 965 724 948 b 644 846 724 871 690 846 b 585 894 603 846 585 863 z "},"ű":{"ha":1018,"x_min":0,"x_max":0,"o":"m 165 310 b 155 210 158 274 155 240 b 427 -26 155 17 284 -26 b 747 81 544 -26 649 13 l 754 0 l 907 0 l 1024 674 l 831 674 l 758 252 b 471 132 690 189 572 132 b 353 246 395 132 353 153 b 363 338 353 271 356 301 l 421 674 l 228 674 z m 406 827 l 524 740 l 724 974 l 596 1076 z m 708 843 l 817 743 l 1040 960 l 924 1072 z "},"ų":{"ha":1018,"x_min":0,"x_max":0,"o":"m 907 0 l 1024 674 l 831 674 l 758 252 b 471 132 690 189 572 132 b 353 246 395 132 353 153 b 363 338 353 271 356 301 l 421 674 l 228 674 l 165 310 b 155 210 158 274 155 240 b 427 -26 155 17 284 -26 b 747 81 544 -26 649 13 l 751 27 b 565 -157 631 -19 565 -77 b 742 -290 565 -243 631 -290 b 910 -255 806 -290 874 -269 l 888 -133 b 768 -160 840 -150 795 -160 b 731 -128 751 -160 731 -153 b 907 0 731 -99 763 -54 z "},"v":{"ha":852,"x_min":0,"x_max":0,"o":"m 119 658 l 313 0 l 551 0 l 953 628 l 788 717 l 457 175 l 304 716 z "},"w":{"ha":1200,"x_min":0,"x_max":0,"o":"m 126 666 l 248 0 l 483 0 l 694 495 l 738 0 l 986 0 l 1299 636 l 1142 697 l 882 151 l 833 674 l 605 674 l 384 163 l 300 697 z "},"ŵ":{"ha":1200,"x_min":0,"x_max":0,"o":"m 500 838 l 601 751 l 741 913 l 830 753 l 951 819 l 836 1016 l 676 1016 z m 126 666 l 248 0 l 483 0 l 694 495 l 738 0 l 986 0 l 1299 636 l 1142 697 l 882 151 l 833 674 l 605 674 l 384 163 l 300 697 z "},"ẁ":{"ha":1200,"x_min":0,"x_max":0,"o":"m 549 964 l 732 755 l 848 845 l 675 1067 z m 126 666 l 248 0 l 483 0 l 694 495 l 738 0 l 986 0 l 1299 636 l 1142 697 l 882 151 l 833 674 l 605 674 l 384 163 l 300 697 z "},"ẃ":{"ha":1200,"x_min":0,"x_max":0,"o":"m 614 857 l 715 749 l 970 958 l 860 1079 z m 126 666 l 248 0 l 483 0 l 694 495 l 738 0 l 986 0 l 1299 636 l 1142 697 l 882 151 l 833 674 l 605 674 l 384 163 l 300 697 z "},"ẅ":{"ha":1200,"x_min":0,"x_max":0,"o":"m 492 960 l 460 778 l 659 778 l 690 960 z m 126 666 l 248 0 l 483 0 l 694 495 l 738 0 l 986 0 l 1299 636 l 1142 697 l 882 151 l 833 674 l 605 674 l 384 163 l 300 697 z m 787 778 l 985 778 l 1017 960 l 818 960 z "},"x":{"ha":876,"x_min":0,"x_max":0,"o":"m 52 87 l 163 -36 l 483 235 l 733 -37 l 862 82 l 618 342 l 930 594 l 823 716 l 508 451 l 281 710 l 147 589 l 369 347 z "},"y":{"ha":856,"x_min":0,"x_max":0,"o":"m 362 -290 l 956 616 l 796 715 l 461 180 l 302 710 l 122 644 l 340 -3 l 214 -190 z "},"ý":{"ha":856,"x_min":0,"x_max":0,"o":"m 362 -290 l 956 616 l 796 715 l 461 180 l 302 710 l 122 644 l 340 -3 l 214 -190 z m 446 857 l 547 749 l 802 958 l 692 1079 z "},"ÿ":{"ha":856,"x_min":0,"x_max":0,"o":"m 362 -290 l 956 616 l 796 715 l 461 180 l 302 710 l 122 644 l 340 -3 l 214 -190 z m 299 778 l 498 778 l 529 960 l 331 960 z m 626 778 l 824 778 l 856 960 l 657 960 z "},"ŷ":{"ha":856,"x_min":0,"x_max":0,"o":"m 362 -290 l 956 616 l 796 715 l 461 180 l 302 710 l 122 644 l 340 -3 l 214 -190 z m 338 838 l 439 751 l 579 913 l 668 753 l 790 819 l 674 1016 l 515 1016 z "},"z":{"ha":896,"x_min":0,"x_max":0,"o":"m 98 170 l 69 0 l 844 0 l 872 160 l 374 160 l 899 511 l 927 674 l 215 674 l 188 515 l 617 515 z "},"ź":{"ha":896,"x_min":0,"x_max":0,"o":"m 98 170 l 69 0 l 844 0 l 872 160 l 374 160 l 899 511 l 927 674 l 215 674 l 188 515 l 617 515 z m 465 857 l 566 749 l 821 958 l 710 1079 z "},"ż":{"ha":896,"x_min":0,"x_max":0,"o":"m 523 960 l 492 778 l 690 778 l 722 960 z m 69 0 l 844 0 l 872 160 l 374 160 l 899 511 l 927 674 l 215 674 l 188 515 l 617 515 l 98 170 z "},"ž":{"ha":896,"x_min":0,"x_max":0,"o":"m 98 170 l 69 0 l 844 0 l 872 160 l 374 160 l 899 511 l 927 674 l 215 674 l 188 515 l 617 515 z m 398 971 l 510 778 l 669 778 l 842 956 l 749 1044 l 604 877 l 516 1041 z "},"ª":{"ha":658,"x_min":0,"x_max":0,"o":"m 338 423 b 534 483 408 423 481 449 l 542 432 l 658 432 l 706 704 b 710 747 708 719 710 734 b 494 897 710 856 625 897 b 274 864 399 897 324 881 l 297 759 b 477 786 340 772 411 786 b 564 723 538 786 564 769 l 564 716 b 474 720 532 719 502 720 b 180 543 285 720 180 660 b 338 423 180 460 241 423 z m 333 563 b 495 633 333 601 354 633 b 551 631 512 633 531 632 l 543 585 b 375 532 495 557 435 532 b 333 563 346 532 333 542 z "},"º":{"ha":664,"x_min":0,"x_max":0,"o":"m 404 419 b 720 684 579 419 720 515 b 485 886 720 817 615 886 b 169 622 306 886 169 790 b 404 419 169 488 274 419 z m 321 632 b 465 772 321 725 390 772 b 569 674 533 772 569 742 b 424 535 569 581 500 535 b 321 632 358 535 321 565 z "},"ß":{"ha":1071,"x_min":0,"x_max":0,"o":"m 463 158 l 419 6 b 642 -26 474 -10 550 -26 b 1039 315 909 -26 1039 81 b 860 503 1039 438 969 487 b 1045 772 1000 544 1045 637 b 693 1020 1045 949 890 1020 b 233 683 465 1020 280 951 l 115 0 l 308 0 l 422 653 b 684 860 450 816 535 860 b 843 748 798 860 843 827 b 681 567 843 639 790 567 l 570 567 l 544 414 l 658 414 b 836 301 792 414 836 379 b 661 132 836 181 770 132 b 463 158 577 132 516 143 z "},"æ":{"ha":1532,"x_min":0,"x_max":0,"o":"m 373 -26 b 790 92 525 -26 676 22 b 1094 -26 844 14 947 -26 b 1448 36 1213 -26 1310 -11 l 1397 187 b 1117 126 1308 153 1208 126 b 910 269 961 126 913 184 l 1482 269 b 1511 415 1496 299 1511 345 b 1185 704 1511 543 1436 704 b 892 605 1063 704 965 667 b 619 704 840 675 739 704 b 263 653 473 704 331 676 l 299 505 b 587 551 366 525 477 551 b 771 436 710 551 771 516 b 768 415 771 429 770 421 b 565 431 715 424 650 431 b 128 165 289 431 128 354 b 373 -26 128 27 239 -26 z m 329 192 b 578 299 329 246 385 299 b 745 288 631 299 692 293 b 744 255 744 277 744 266 b 746 219 744 242 744 231 b 426 127 615 156 515 127 b 329 192 363 127 329 151 z m 929 388 b 1170 555 959 476 1033 555 b 1333 411 1299 555 1329 491 b 1334 388 1334 404 1334 396 z "},"ǽ":{"ha":1515,"x_min":0,"x_max":0,"o":"m 356 -26 b 773 92 508 -26 660 22 b 1077 -26 828 14 931 -26 b 1431 36 1197 -26 1293 -11 l 1380 187 b 1101 126 1292 153 1192 126 b 894 269 944 126 896 184 l 1465 269 b 1494 415 1479 299 1494 345 b 1169 704 1494 543 1419 704 b 876 605 1047 704 948 667 b 602 704 823 675 722 704 b 247 653 456 704 315 676 l 282 505 b 570 551 349 525 460 551 b 754 436 693 551 754 516 b 751 415 754 429 753 421 b 548 431 699 424 633 431 b 112 165 272 431 112 354 b 356 -26 112 27 222 -26 z m 313 192 b 561 299 313 246 368 299 b 728 288 614 299 676 293 b 727 255 728 277 727 266 b 729 219 727 242 728 231 b 409 127 598 156 498 127 b 313 192 347 127 313 151 z m 802 857 l 903 749 l 1158 958 l 1048 1079 z m 913 388 b 1153 555 942 476 1016 555 b 1317 411 1283 555 1313 491 b 1317 388 1317 404 1317 396 z "},"ð":{"ha":1019,"x_min":0,"x_max":0,"o":"m 494 -19 b 1028 507 801 -19 1028 164 b 840 903 1028 691 963 822 l 905 989 l 809 1059 l 731 957 b 480 1001 659 983 575 997 l 448 859 b 632 827 517 856 579 845 l 571 747 l 674 681 l 740 769 b 845 500 828 701 851 598 b 554 638 801 574 709 638 b 138 269 333 638 138 508 b 494 -19 138 53 324 -19 z m 340 284 b 548 478 340 399 435 478 b 794 308 657 478 745 426 b 515 142 749 190 613 142 b 340 284 403 142 340 187 z "},"ø":{"ha":1036,"x_min":0,"x_max":0,"o":"m 76 57 l 160 -47 l 270 34 b 519 -26 335 -6 419 -26 b 1017 390 793 -26 1017 124 b 973 550 1017 453 1001 506 l 1047 605 l 969 714 l 874 644 b 634 704 809 684 726 704 b 136 283 373 704 136 557 b 175 130 136 224 150 173 z m 338 307 b 612 544 338 453 463 544 b 714 526 651 544 685 538 l 344 254 b 338 307 340 270 338 288 z m 432 153 l 806 428 b 815 371 812 411 815 392 b 541 133 815 229 685 133 b 432 153 499 133 462 140 z "},"ǿ":{"ha":1036,"x_min":0,"x_max":0,"o":"m 76 57 l 160 -47 l 270 34 b 519 -26 335 -6 419 -26 b 1017 390 793 -26 1017 124 b 973 550 1017 453 1001 506 l 1047 605 l 969 714 l 874 644 b 634 704 809 684 726 704 b 136 283 373 704 136 557 b 175 130 136 224 150 173 z m 338 307 b 612 544 338 453 463 544 b 714 526 651 544 685 538 l 344 254 b 338 307 340 270 338 288 z m 432 153 l 806 428 b 815 371 812 411 815 392 b 541 133 815 229 685 133 b 432 153 499 133 462 140 z m 549 857 l 651 749 l 906 958 l 795 1079 z "},"þ":{"ha":1012,"x_min":0,"x_max":0,"o":"m 285 982 l 68 -274 l 261 -274 l 318 55 b 546 -26 373 8 450 -26 b 992 403 785 -26 992 92 b 683 703 992 613 847 703 b 417 631 566 703 476 666 l 478 982 z m 348 230 l 388 457 b 630 543 463 507 552 543 b 788 385 740 543 788 487 b 547 133 788 240 712 133 b 348 230 470 133 401 164 z "},"đ":{"ha":1010,"x_min":0,"x_max":0,"o":"m 684 904 l 661 769 l 835 769 l 814 649 b 590 703 761 677 688 703 b 135 273 349 703 135 562 b 459 -26 135 72 270 -26 b 736 68 570 -26 667 20 l 746 0 l 895 0 l 1028 769 l 1154 769 l 1177 904 l 1051 904 l 1065 982 l 872 982 l 858 904 z m 338 291 b 581 543 338 450 445 543 b 788 494 651 543 711 526 l 742 229 b 505 133 664 169 574 133 b 338 291 395 133 338 186 z "},"ħ":{"ha":1011,"x_min":0,"x_max":0,"o":"m 135 888 l 113 760 l 247 760 l 115 0 l 308 0 l 384 438 b 676 544 436 470 563 544 b 788 445 747 544 788 515 b 785 405 788 433 788 419 l 715 0 l 908 0 l 979 416 b 986 492 984 444 986 469 b 719 704 986 656 871 704 b 413 605 599 704 487 652 l 440 760 l 606 760 l 628 888 l 461 888 l 478 983 l 285 983 l 268 888 z "},"ı":{"ha":429,"x_min":0,"x_max":0,"o":"m 235 674 l 118 0 l 311 0 l 428 674 z "},"ĳ":{"ha":967,"x_min":0,"x_max":0,"o":"m 311 674 l 194 0 l 388 0 l 504 674 z m 329 778 l 522 778 l 553 960 l 360 960 z m 445 -121 l 460 -290 b 841 -6 696 -249 813 -170 l 958 674 l 765 674 l 655 35 b 445 -121 639 -53 544 -97 z m 783 778 l 976 778 l 1008 960 l 815 960 z "},"ĸ":{"ha":963,"x_min":0,"x_max":0,"o":"m 565 305 l 766 -37 l 920 58 l 716 409 l 980 591 l 890 716 l 371 363 l 425 674 l 232 674 l 115 0 l 308 0 l 334 148 z "},"ŀ":{"ha":568,"x_min":0,"x_max":0,"o":"m 285 982 l 115 0 l 308 0 l 478 982 z m 465 435 l 667 435 l 701 631 l 499 631 z "},"ł":{"ha":588,"x_min":0,"x_max":0,"o":"m 66 411 l 121 274 l 238 324 l 182 0 l 375 0 l 447 415 l 680 517 l 626 654 l 476 590 l 544 982 l 351 982 l 268 499 z "},"ŉ":{"ha":1011,"x_min":0,"x_max":0,"o":"m 66 717 l 218 892 l 244 1043 l 42 1043 l 17 897 l 85 897 l -3 764 z m 115 0 l 308 0 l 384 438 b 676 544 436 470 563 544 b 788 445 747 544 788 515 b 785 405 788 433 788 419 l 715 0 l 908 0 l 979 416 b 986 492 984 444 986 469 b 719 704 986 656 871 704 b 399 597 592 704 474 645 l 391 674 l 232 674 z "},"ŋ":{"ha":1011,"x_min":0,"x_max":0,"o":"m 785 405 l 721 35 b 511 -121 705 -53 610 -97 l 526 -290 b 907 -6 762 -249 878 -170 l 979 416 b 986 492 984 444 986 469 b 719 704 986 656 871 704 b 399 597 592 704 474 645 l 391 674 l 232 674 l 115 0 l 308 0 l 384 438 b 676 544 436 470 563 544 b 788 445 747 544 788 515 b 785 405 788 433 788 419 z "},"œ":{"ha":1604,"x_min":0,"x_max":0,"o":"m 502 -26 b 863 99 652 -26 778 17 b 1165 -26 916 17 1017 -26 b 1525 37 1288 -26 1406 -1 l 1481 187 b 1187 131 1399 160 1285 131 b 981 265 1074 131 990 167 l 1567 265 b 1599 425 1582 298 1599 349 b 1260 704 1599 542 1522 704 b 928 570 1118 704 1005 653 b 629 704 867 663 754 704 b 136 283 370 704 136 558 b 502 -26 136 86 289 -26 z m 338 307 b 610 544 338 453 461 544 b 815 371 733 544 815 484 b 540 133 815 229 678 133 b 338 307 413 133 338 193 z m 1002 394 b 1245 554 1037 481 1122 554 b 1413 399 1350 554 1413 512 l 1413 394 z "},"ŧ":{"ha":806,"x_min":0,"x_max":0,"o":"m 109 428 l 85 289 l 244 289 l 232 217 b 226 148 228 192 226 169 b 469 -26 226 6 325 -26 b 757 28 549 -26 685 3 l 722 178 b 492 133 656 156 566 133 b 424 197 455 133 424 147 b 426 224 424 205 425 214 l 438 289 l 758 289 l 782 428 l 462 428 l 476 515 l 804 515 l 832 674 l 504 674 l 535 856 l 342 856 l 311 674 l 159 674 l 131 515 l 283 515 l 269 428 z "},"ſ":{"ha":682,"x_min":0,"x_max":0,"o":"m 292 521 l 201 0 l 394 0 l 524 747 b 678 859 538 828 583 859 b 877 822 730 859 815 841 l 931 977 b 683 1018 869 996 781 1018 b 333 761 522 1018 368 969 l 318 674 l 180 674 l 153 521 z "},"ȷ":{"ha":515,"x_min":0,"x_max":0,"o":"m 203 35 b -6 -121 188 -53 93 -97 l 8 -290 b 390 -6 244 -249 361 -170 l 507 674 l 314 674 z "},"π":{"ha":1244,"x_min":0,"x_max":0,"o":"m 769 201 b 764 147 765 182 764 164 b 966 -21 764 24 853 -21 b 1193 19 1090 -21 1193 19 l 1162 170 b 1017 137 1162 170 1065 137 b 960 188 981 137 960 147 b 964 222 960 197 962 209 l 1016 521 l 1239 521 l 1265 674 l 174 674 l 148 521 l 349 521 l 258 1 l 451 1 l 542 521 l 824 521 z "},"¼":{"ha":1906,"x_min":0,"x_max":0,"o":"m 1639 107 l 1621 1 l 1766 1 l 1784 107 l 1883 107 l 1903 229 l 1805 229 l 1858 539 l 1667 539 l 1288 249 l 1264 107 z m 185 363 l 743 363 l 767 499 l 587 499 l 656 900 l 548 900 l 286 840 l 286 710 l 472 747 l 429 499 l 209 499 z m 608 16 l 705 -78 l 1595 817 l 1501 914 z m 1451 229 l 1691 408 l 1660 229 z "},"½":{"ha":1993,"x_min":0,"x_max":0,"o":"m 209 499 l 185 363 l 743 363 l 767 499 l 587 499 l 656 900 l 548 900 l 286 840 l 286 710 l 472 747 l 429 499 z m 608 16 l 705 -78 l 1595 817 l 1501 914 z m 1350 1 l 1919 1 l 1942 136 l 1535 136 l 1536 141 b 1641 192 1538 158 1560 167 l 1756 229 b 1976 424 1940 288 1976 328 b 1753 560 1976 513 1901 560 b 1442 510 1636 560 1522 536 l 1469 382 b 1731 428 1540 406 1629 428 b 1807 399 1791 428 1807 417 b 1700 343 1807 382 1794 372 l 1569 303 b 1367 104 1448 260 1385 210 z "},"¾":{"ha":1875,"x_min":0,"x_max":0,"o":"m 203 501 l 167 378 b 422 342 239 353 336 342 b 765 547 628 342 765 390 b 674 659 765 590 740 643 b 781 792 731 673 781 722 b 529 921 781 890 674 921 b 255 880 429 921 314 896 l 276 756 b 516 796 353 778 451 796 b 591 756 570 796 591 779 b 517 699 591 730 585 699 l 358 699 l 338 579 l 508 579 b 581 537 563 579 581 567 b 440 468 581 492 534 468 b 203 501 333 468 249 486 z m 583 21 l 680 -74 l 1570 822 l 1476 919 z m 1205 107 l 1580 107 l 1562 1 l 1707 1 l 1725 107 l 1824 107 l 1844 229 l 1746 229 l 1799 539 l 1608 539 l 1229 249 z m 1392 229 l 1632 408 l 1601 229 z "},"_":{"ha":984,"x_min":0,"x_max":0,"o":"m 22 -69 l -5 -224 l 911 -224 l 938 -69 z "},"-":{"ha":542,"x_min":0,"x_max":0,"o":"m 110 442 l 83 280 l 556 280 l 584 442 z "},"–":{"ha":844,"x_min":0,"x_max":0,"o":"m 110 442 l 85 294 l 860 294 l 886 442 z "},"—":{"ha":1215,"x_min":0,"x_max":0,"o":"m 110 442 l 86 303 l 1233 303 l 1258 442 z "},"(":{"ha":514,"x_min":0,"x_max":0,"o":"m 305 -127 l 473 -38 b 365 358 419 69 365 189 b 623 872 365 624 489 756 l 510 1019 b 169 351 337 879 169 697 b 305 -127 169 173 201 58 z "},")":{"ha":517,"x_min":0,"x_max":0,"o":"m 307 506 b 38 7 307 309 174 138 l 155 -139 b 502 547 365 41 502 219 b 361 1004 502 760 426 916 l 196 917 b 307 506 262 809 307 697 z "},"[":{"ha":555,"x_min":0,"x_max":0,"o":"m 304 1028 l 104 -131 l 469 -131 l 496 23 l 320 23 l 467 875 l 643 875 l 669 1028 z "},"]":{"ha":594,"x_min":0,"x_max":0,"o":"m 436 -131 l 636 1028 l 271 1028 l 244 875 l 420 875 l 273 23 l 97 23 l 71 -131 z "},"{":{"ha":635,"x_min":0,"x_max":0,"o":"m 550 -124 l 576 30 b 415 98 460 30 415 46 b 417 119 415 104 415 112 l 447 297 b 450 331 449 309 450 320 b 367 440 450 386 421 420 b 493 567 435 459 480 490 l 524 749 b 719 856 538 835 576 856 l 744 1006 b 344 794 558 1006 382 1015 l 306 576 b 173 503 297 529 243 509 l 150 369 b 258 311 220 366 258 355 b 257 294 258 306 258 300 l 225 110 b 219 53 222 90 219 70 b 550 -124 219 -115 398 -124 z "},"}":{"ha":635,"x_min":0,"x_max":0,"o":"m 68 30 l 42 -124 b 444 88 226 -124 406 -132 l 479 294 b 612 369 489 352 532 365 l 635 503 b 527 567 572 508 527 526 b 528 576 527 570 527 573 l 566 794 b 571 845 569 813 571 829 b 237 1006 571 1006 373 1006 l 211 856 b 374 792 333 856 374 841 b 372 770 374 785 374 778 l 338 567 b 335 538 336 557 335 547 b 420 440 335 481 370 455 b 292 297 344 419 305 373 l 260 119 b 68 30 247 50 200 30 z "},"#":{"ha":1131,"x_min":0,"x_max":0,"o":"m 192 7 l 363 -26 l 463 224 l 655 224 l 569 7 l 740 -26 l 840 224 l 1078 224 l 1103 368 l 897 368 l 974 558 l 1197 558 l 1221 703 l 1031 703 l 1106 890 l 931 919 l 844 703 l 654 703 l 729 890 l 553 919 l 467 703 l 225 703 l 200 558 l 410 558 l 335 368 l 107 368 l 82 224 l 278 224 z m 520 368 l 597 558 l 788 558 l 713 368 z "},"%":{"ha":1328,"x_min":0,"x_max":0,"o":"m 456 879 b 156 608 307 879 156 799 b 384 411 156 472 272 411 b 685 683 534 411 685 494 b 456 879 685 817 566 879 z m 291 67 l 385 -26 l 1201 794 l 1107 885 z m 311 624 b 439 750 311 710 370 750 b 529 665 494 750 529 724 b 402 540 529 579 469 540 b 311 624 347 540 311 565 z m 791 171 b 1019 -26 791 34 906 -26 b 1319 246 1169 -26 1319 56 b 1091 442 1319 380 1201 442 b 791 171 942 442 791 362 z m 946 186 b 1074 313 946 273 1005 313 b 1164 228 1128 313 1164 287 b 1037 102 1164 142 1104 102 b 946 186 981 102 946 128 z "},"‰":{"ha":1912,"x_min":0,"x_max":0,"o":"m 454 879 b 154 608 305 879 154 799 b 382 411 154 472 269 411 b 683 683 532 411 683 494 b 454 879 683 817 564 879 z m 289 67 l 383 -26 l 1199 794 l 1105 885 z m 309 624 b 437 750 309 710 368 750 b 527 665 492 750 527 724 b 400 540 527 579 467 540 b 309 624 344 540 309 565 z m 789 171 b 1017 -26 789 34 904 -26 b 1317 246 1167 -26 1317 56 b 1089 442 1317 380 1199 442 b 789 171 940 442 789 362 z m 944 186 b 1072 313 944 273 1003 313 b 1162 228 1126 313 1162 287 b 1035 102 1162 142 1102 102 b 944 186 979 102 944 128 z m 1376 171 b 1604 -26 1376 34 1492 -26 b 1905 246 1754 -26 1905 56 b 1676 442 1905 380 1786 442 b 1376 171 1527 442 1376 362 z m 1531 186 b 1659 313 1531 273 1590 313 b 1749 228 1714 313 1749 287 b 1622 102 1749 142 1690 102 b 1531 186 1567 102 1531 128 z "},"'":{"ha":316,"x_min":0,"x_max":0,"o":"m 226 896 l 191 565 l 322 565 l 399 896 z "},"\"":{"ha":549,"x_min":0,"x_max":0,"o":"m 228 896 l 193 565 l 324 565 l 401 896 z m 426 565 l 557 565 l 635 896 l 462 896 z "},"‘":{"ha":340,"x_min":0,"x_max":0,"o":"m 413 872 l 341 919 l 188 735 l 160 578 l 363 578 l 389 730 l 322 730 z "},"’":{"ha":340,"x_min":0,"x_max":0,"o":"m 178 601 l 251 555 l 403 738 l 431 896 l 229 896 l 203 744 l 270 744 z "},"“":{"ha":604,"x_min":0,"x_max":0,"o":"m 413 869 l 340 915 l 188 732 l 160 574 l 362 574 l 388 726 l 321 726 z m 420 574 l 622 574 l 649 726 l 581 726 l 673 869 l 601 915 l 448 732 z "},"”":{"ha":604,"x_min":0,"x_max":0,"o":"m 388 601 l 460 555 l 613 738 l 640 896 l 438 896 l 412 744 l 479 744 z m 127 601 l 199 555 l 352 738 l 380 896 l 178 896 l 151 744 l 219 744 z "},"‚":{"ha":340,"x_min":0,"x_max":0,"o":"m -1 -174 l 72 -221 l 224 -37 l 252 120 l 50 120 l 24 -32 l 91 -32 z "},"„":{"ha":600,"x_min":0,"x_max":0,"o":"m 272 -152 l 344 -199 l 497 -15 l 524 142 l 322 142 l 296 -10 l 363 -10 z m 11 -152 l 83 -199 l 236 -15 l 264 142 l 62 142 l 35 -10 l 103 -10 z "},"‹":{"ha":563,"x_min":0,"x_max":0,"o":"m 128 338 l 368 -40 l 531 70 l 368 321 l 614 572 l 477 704 z "},"›":{"ha":529,"x_min":0,"x_max":0,"o":"m 542 344 l 302 722 l 140 611 l 302 360 l 56 109 l 193 -23 z "},"«":{"ha":915,"x_min":0,"x_max":0,"o":"m 104 338 l 335 -40 l 499 67 l 341 320 l 576 568 l 442 704 z m 494 338 l 733 -40 l 892 67 l 731 320 l 971 566 l 840 703 z "},"»":{"ha":915,"x_min":0,"x_max":0,"o":"m 952 343 l 721 722 l 558 615 l 715 361 l 481 113 l 614 -23 z m 85 115 l 217 -22 l 563 344 l 323 722 l 164 614 l 325 361 z "},"*":{"ha":547,"x_min":0,"x_max":0,"o":"m 324 609 l 299 469 l 410 469 l 435 613 l 545 542 l 613 637 l 506 705 l 640 776 l 596 872 l 468 804 l 492 942 l 381 942 l 356 801 l 245 872 l 178 777 l 285 708 l 147 635 l 191 540 z "},"†":{"ha":622,"x_min":0,"x_max":0,"o":"m 321 573 l 216 -101 l 372 -101 l 499 573 l 652 573 l 676 713 l 524 713 l 565 948 l 385 948 l 344 713 l 192 713 l 169 573 z "},"‡":{"ha":622,"x_min":0,"x_max":0,"o":"m 274 273 l 216 -101 l 372 -101 l 442 273 l 600 273 l 624 413 l 469 413 l 499 573 l 652 573 l 676 713 l 524 713 l 565 948 l 385 948 l 344 713 l 192 713 l 169 573 l 321 573 l 296 413 l 141 413 l 117 273 z "},".":{"ha":340,"x_min":0,"x_max":0,"o":"m 103 196 l 69 0 l 271 0 l 305 196 z "},",":{"ha":340,"x_min":0,"x_max":0,"o":"m 113 -238 l 267 -22 l 299 156 l 97 156 l 67 -17 l 135 -17 l 38 -194 z "},":":{"ha":340,"x_min":0,"x_max":0,"o":"m 185 674 l 151 478 l 353 478 l 388 674 z m 69 0 l 271 0 l 305 196 l 103 196 z "},";":{"ha":340,"x_min":0,"x_max":0,"o":"m 186 674 l 152 478 l 354 478 l 388 674 z m 38 -194 l 113 -238 l 267 -22 l 299 156 l 97 156 l 67 -17 l 135 -17 z "},"…":{"ha":981,"x_min":0,"x_max":0,"o":"m 103 196 l 69 0 l 271 0 l 305 196 z m 375 0 l 577 0 l 611 196 l 409 196 z m 681 0 l 883 0 l 917 196 l 715 196 z "},"!":{"ha":481,"x_min":0,"x_max":0,"o":"m 253 631 l 210 295 l 372 295 l 445 628 l 492 897 l 299 897 z m 145 0 l 333 0 l 365 182 l 176 182 z "},"¡":{"ha":480,"x_min":0,"x_max":0,"o":"m 361 142 l 404 477 l 242 477 l 169 144 l 122 -124 l 315 -124 z m 249 590 l 438 590 l 469 772 l 281 772 z "},"?":{"ha":825,"x_min":0,"x_max":0,"o":"m 294 182 l 263 0 l 451 0 l 483 182 z m 179 838 l 234 682 b 562 773 349 732 474 773 b 692 701 640 773 692 751 b 519 549 692 635 656 598 b 323 346 376 499 341 450 l 314 294 l 501 294 l 504 312 b 612 401 511 353 539 374 b 892 708 818 474 892 535 b 572 935 892 866 758 935 b 179 838 423 935 274 885 z "},"¿":{"ha":814,"x_min":0,"x_max":0,"o":"m 659 590 l 690 772 l 502 772 l 471 590 z m 62 65 b 382 -162 62 -94 195 -162 b 774 -65 531 -162 680 -112 l 719 90 b 392 -1 604 40 480 -1 b 261 71 314 -1 261 22 b 434 223 261 137 297 174 b 631 426 577 274 613 322 l 640 478 l 452 478 l 449 460 b 342 372 442 419 415 398 b 62 65 135 298 62 237 z "},"/":{"ha":606,"x_min":0,"x_max":0,"o":"m -15 -185 l 137 -255 l 762 999 l 610 1072 z "},"\\":{"ha":630,"x_min":0,"x_max":0,"o":"m 197 1047 l 405 -255 l 574 -228 l 365 1072 z "},"⁄":{"ha":556,"x_min":0,"x_max":0,"o":"m -122 21 l -24 -74 l 866 822 l 772 919 z "},"|":{"ha":456,"x_min":0,"x_max":0,"o":"m 325 1083 l 89 -287 l 268 -287 l 504 1083 z "},"¦":{"ha":456,"x_min":0,"x_max":0,"o":"m 195 329 l 89 -287 l 268 -287 l 374 329 z m 219 465 l 398 465 l 504 1083 l 325 1083 z "},"@":{"ha":1476,"x_min":0,"x_max":0,"o":"m 704 -187 b 1112 -137 849 -187 988 -167 l 1080 -11 b 722 -56 1001 -28 859 -56 b 326 276 484 -56 326 41 b 897 799 326 624 591 799 b 1295 475 1130 799 1295 699 b 1158 197 1295 262 1219 197 b 1106 233 1125 197 1106 206 b 1107 244 1106 237 1106 240 l 1138 428 b 1143 478 1141 446 1143 463 b 878 667 1143 617 1027 667 b 574 612 765 667 658 643 l 602 492 b 857 544 657 513 767 544 b 990 456 944 544 990 524 b 866 461 948 459 910 461 b 473 230 616 461 473 381 b 690 70 473 103 585 70 b 965 153 792 70 887 105 b 1123 69 990 99 1049 69 b 1449 494 1266 69 1449 135 b 907 930 1449 797 1197 930 b 169 262 542 930 169 735 b 704 -187 169 -67 429 -187 z m 635 248 b 892 348 635 301 705 348 b 974 345 911 348 942 347 l 962 273 b 724 196 879 224 788 196 b 635 248 658 196 635 215 z "},"&":{"ha":1178,"x_min":0,"x_max":0,"o":"m 490 -26 b 864 85 624 -26 756 6 b 1015 -26 910 50 961 13 l 1126 115 b 990 215 1077 151 1032 184 b 1106 525 1044 294 1085 397 l 922 525 b 847 322 903 440 878 374 b 528 674 613 498 528 576 b 672 772 528 733 574 772 b 878 737 737 772 827 749 l 931 892 b 685 934 867 912 760 934 b 328 654 524 934 328 882 b 386 491 328 598 346 547 b 154 196 227 421 154 326 b 490 -26 154 30 290 -26 z m 357 228 b 493 376 357 291 414 341 b 722 190 551 322 626 263 b 506 136 643 142 560 136 b 357 228 413 136 357 163 z "},"§":{"ha":961,"x_min":0,"x_max":0,"o":"m 444 -214 b 886 72 729 -214 886 -130 b 822 215 886 140 861 185 b 963 422 910 260 963 324 b 444 697 963 703 444 551 b 656 789 444 738 488 789 b 948 745 724 789 833 774 l 1001 891 b 670 935 924 910 794 935 b 257 674 419 935 257 854 b 334 523 257 601 288 553 b 178 311 247 484 178 413 b 694 47 178 29 694 217 b 458 -60 694 -27 603 -60 b 155 -11 364 -60 259 -43 l 101 -162 b 444 -214 171 -190 306 -214 z m 367 347 b 510 469 367 397 408 439 b 782 384 644 451 782 458 b 669 272 782 335 741 299 b 367 347 527 296 367 278 z "},"¶":{"ha":1058,"x_min":0,"x_max":0,"o":"m 439 309 l 501 309 l 413 -197 l 589 -197 l 784 934 l 554 934 b 156 558 285 934 156 795 b 439 309 156 399 269 309 z m 710 -197 l 886 -197 l 1081 934 l 906 934 z "},"·":{"ha":340,"x_min":0,"x_max":0,"o":"m 156 585 l 122 390 l 324 390 l 358 585 z "},"•":{"ha":425,"x_min":0,"x_max":0,"o":"m 178 547 l 135 297 l 393 297 l 436 547 z "},"+":{"ha":941,"x_min":0,"x_max":0,"o":"m 433 332 l 385 51 l 574 51 l 623 332 l 929 332 l 957 494 l 651 494 l 694 747 l 505 747 l 461 494 l 155 494 l 127 332 z "},"−":{"ha":848,"x_min":0,"x_max":0,"o":"m 142 488 l 115 335 l 848 335 l 874 488 z "},"±":{"ha":848,"x_min":0,"x_max":0,"o":"m 412 478 l 372 249 l 562 249 l 601 478 l 873 478 l 901 640 l 630 640 l 665 844 l 475 844 l 440 640 l 168 640 l 140 478 z m 58 3 l 791 3 l 819 166 l 86 166 z "},"÷":{"ha":848,"x_min":0,"x_max":0,"o":"m 370 238 l 339 56 l 527 56 l 558 238 z m 115 335 l 848 335 l 874 488 l 142 488 z m 430 585 l 618 585 l 649 767 l 460 767 z "},"×":{"ha":854,"x_min":0,"x_max":0,"o":"m 141 208 l 259 78 l 483 272 l 644 78 l 783 194 l 618 383 l 842 566 l 726 694 l 512 506 l 353 689 l 217 571 l 374 398 z "},"=":{"ha":918,"x_min":0,"x_max":0,"o":"m 117 342 l 89 180 l 891 180 l 919 342 z m 141 483 l 943 483 l 972 646 l 169 646 z "},"<":{"ha":972,"x_min":0,"x_max":0,"o":"m 152 312 l 822 -30 l 905 126 l 348 388 l 996 636 l 941 793 l 181 483 z "},">":{"ha":972,"x_min":0,"x_max":0,"o":"m 985 462 l 316 803 l 233 647 l 790 386 l 142 138 l 197 -19 l 956 291 z "},"≤":{"ha":915,"x_min":0,"x_max":0,"o":"m 178 451 l 828 211 l 883 363 l 381 531 l 949 690 l 913 839 l 208 625 z m 99 -1 l 832 -1 l 860 162 l 127 162 z "},"≥":{"ha":939,"x_min":0,"x_max":0,"o":"m 162 371 l 199 220 l 927 432 l 958 606 l 314 846 l 250 702 l 748 530 z m 119 -1 l 852 -1 l 880 162 l 147 162 z "},"≈":{"ha":961,"x_min":0,"x_max":0,"o":"m 519 176 b 680 138 571 157 619 138 b 929 199 780 138 844 159 l 886 348 b 703 303 828 321 773 303 b 547 339 644 303 598 321 b 376 374 498 357 445 374 b 106 308 265 374 156 332 l 149 158 b 353 209 204 183 278 209 b 519 176 420 209 471 193 z m 158 606 l 200 456 b 404 507 256 482 329 507 b 569 474 471 507 522 491 b 731 435 622 456 670 435 b 981 497 831 435 896 456 l 938 646 b 755 601 880 618 824 601 b 608 634 700 601 655 617 b 427 672 556 653 501 672 b 158 606 316 672 207 630 z "},"≠":{"ha":918,"x_min":0,"x_max":0,"o":"m 269 80 l 415 33 l 489 180 l 891 180 l 919 342 l 572 342 l 643 483 l 943 483 l 972 646 l 726 646 l 776 745 l 631 794 l 556 646 l 169 646 l 141 483 l 474 483 l 402 342 l 117 342 l 89 180 l 320 180 z "},"¬":{"ha":885,"x_min":0,"x_max":0,"o":"m 715 287 l 689 137 l 851 137 l 902 431 l 132 431 l 107 287 z "},"←":{"ha":1070,"x_min":0,"x_max":0,"o":"m 171 385 l 394 106 l 523 218 l 399 374 l 1065 374 l 1093 533 l 427 533 l 603 685 l 512 799 l 194 520 z "},"↑":{"ha":866,"x_min":0,"x_max":0,"o":"m 469 667 l 354 0 l 513 0 l 628 666 l 754 515 l 888 627 l 656 897 l 520 897 l 195 626 l 288 515 z "},"→":{"ha":1071,"x_min":0,"x_max":0,"o":"m 622 220 l 714 108 l 1033 387 l 1056 522 l 835 801 l 703 687 l 828 535 l 162 535 l 134 376 l 801 376 z "},"↓":{"ha":866,"x_min":0,"x_max":0,"o":"m 133 271 l 365 0 l 501 0 l 826 269 l 731 381 l 553 231 l 668 897 l 509 897 l 394 230 l 265 381 z "},"∂":{"ha":1149,"x_min":0,"x_max":0,"o":"m 551 -40 b 1129 512 875 -40 1129 133 b 706 934 1129 776 983 934 b 279 833 508 934 353 872 l 337 683 b 690 773 474 743 588 773 b 940 506 850 773 938 682 b 622 614 884 557 788 614 b 172 240 442 614 172 527 b 551 -40 172 38 335 -40 z m 370 258 b 624 457 370 384 488 457 b 906 328 737 457 836 408 b 568 120 854 187 694 120 b 370 258 449 120 370 162 z "},"∆":{"ha":1277,"x_min":0,"x_max":0,"o":"m 43 0 l 1234 0 l 907 982 l 704 982 z m 355 163 l 786 798 l 1000 163 z "},"∏":{"ha":1085,"x_min":0,"x_max":0,"o":"m 299 934 l 106 -187 l 288 -187 l 457 788 l 901 788 l 732 -187 l 915 -187 l 1108 934 z "},"∑":{"ha":1033,"x_min":0,"x_max":0,"o":"m 100 -3 l 70 -175 l 944 -175 l 970 -24 l 331 -24 l 805 375 l 472 783 l 1103 783 l 1128 934 l 262 934 l 237 789 l 569 387 z "},"µ":{"ha":1049,"x_min":0,"x_max":0,"o":"m 243 674 l 79 -274 l 272 -274 l 307 -72 b 315 8 312 -44 313 -12 b 442 -26 351 -17 397 -26 b 762 81 560 -26 665 13 l 769 0 l 922 0 l 1039 674 l 846 674 l 773 252 b 486 132 705 189 588 132 b 368 246 410 132 368 153 b 378 338 368 271 372 301 l 436 674 z "},"∕":{"ha":560,"x_min":0,"x_max":0,"o":"m -15 -185 l 137 -255 l 762 999 l 610 1072 z "},"√":{"ha":989,"x_min":0,"x_max":0,"o":"m 256 454 l 373 0 l 585 0 l 1160 897 l 1022 978 l 505 165 l 401 598 l 137 598 l 112 454 z "},"∞":{"ha":1335,"x_min":0,"x_max":0,"o":"m 1141 365 b 993 206 1141 276 1084 206 b 855 263 924 206 888 217 l 810 328 l 887 406 b 1039 472 935 455 976 472 b 1141 365 1112 472 1141 427 z m 142 292 b 385 67 142 151 242 67 b 686 206 507 67 590 105 l 697 217 l 706 205 b 976 67 776 108 848 67 b 1308 375 1173 67 1308 182 b 1068 611 1308 524 1210 611 b 760 476 925 611 847 567 l 729 444 l 702 483 b 465 611 639 574 573 611 b 142 292 297 611 142 495 z m 310 312 b 453 472 310 398 366 472 b 542 431 492 472 517 467 l 616 329 l 544 264 b 407 206 508 231 467 206 b 310 312 338 206 310 250 z "},"∫":{"ha":904,"x_min":0,"x_max":0,"o":"m -15 -140 l -53 -290 b 183 -328 -53 -290 66 -328 b 531 -80 383 -328 497 -278 l 680 781 b 829 883 694 860 736 883 b 1022 852 890 883 942 872 l 1066 999 b 832 1038 1066 999 941 1038 b 495 789 658 1038 530 990 l 350 -54 b 198 -174 334 -147 297 -174 b -15 -140 130 -174 60 -160 z "},"$":{"ha":1063,"x_min":0,"x_max":0,"o":"m 399 33 l 369 -135 l 476 -135 l 504 26 b 538 25 515 25 527 25 b 603 26 560 25 583 26 l 576 -135 l 683 -135 l 713 37 b 1034 328 915 68 1034 160 b 797 526 1034 440 953 495 l 825 689 b 979 653 878 679 932 667 l 1045 800 b 852 845 985 817 920 834 l 882 1017 l 775 1017 l 747 858 b 683 860 726 859 705 860 b 649 859 671 860 660 860 l 676 1017 l 569 1017 l 540 852 b 231 600 353 829 231 755 b 463 407 231 483 321 433 l 426 189 b 172 265 321 204 231 237 l 107 122 b 399 33 180 81 281 49 z m 416 626 b 513 697 416 663 449 685 l 492 572 b 416 626 433 585 416 603 z m 531 180 l 567 392 l 586 390 b 665 381 608 388 642 383 l 631 183 b 546 180 604 181 576 180 z m 596 554 l 622 706 b 658 707 633 707 646 707 b 721 703 678 707 699 706 l 693 543 l 654 547 b 596 554 633 549 613 551 z m 742 201 l 769 363 b 856 298 832 346 856 326 b 742 201 856 253 814 220 z "},"¢":{"ha":922,"x_min":0,"x_max":0,"o":"m 139 303 b 363 47 139 163 224 79 l 337 -100 l 451 -100 l 474 33 b 507 32 485 32 496 32 b 553 33 523 32 538 33 l 531 -100 l 645 -100 l 671 47 b 885 123 741 61 810 85 l 825 244 b 697 197 787 226 742 210 l 755 534 b 882 492 797 524 840 509 l 948 622 b 779 674 896 644 843 663 l 806 829 l 691 829 l 667 687 b 632 688 656 688 644 688 b 588 686 617 688 602 687 l 612 829 l 497 829 l 470 670 b 139 303 277 627 139 502 z m 306 321 b 444 517 306 418 363 482 l 388 197 b 306 321 338 220 306 259 z m 499 174 l 563 549 b 623 552 583 551 603 552 b 643 551 630 552 636 552 l 578 175 b 536 173 564 174 550 173 b 499 174 524 173 511 174 z "},"£":{"ha":948,"x_min":0,"x_max":0,"o":"m 158 143 l 133 0 l 892 0 l 916 140 l 349 140 l 429 369 l 887 369 l 909 500 l 476 500 l 526 646 b 734 782 566 759 654 782 b 955 731 797 782 890 762 l 1018 871 b 749 935 962 897 865 935 b 351 682 584 935 426 892 l 286 500 l 155 500 l 133 369 l 239 369 z "},"¤":{"ha":960,"x_min":0,"x_max":0,"o":"m 233 62 l 363 176 b 529 138 408 151 465 138 b 672 163 581 138 629 147 l 763 60 l 890 165 l 810 259 b 878 455 860 319 878 388 b 842 580 878 502 865 544 l 951 672 l 851 789 l 722 676 b 603 697 686 690 646 697 b 454 672 550 697 499 689 l 362 785 l 231 681 l 314 578 b 243 385 269 528 243 462 b 262 287 243 349 250 316 l 128 178 z m 411 393 b 586 565 411 482 476 565 b 711 442 670 565 710 517 b 535 272 711 350 644 272 b 411 393 453 272 411 319 z "},"¥":{"ha":1119,"x_min":0,"x_max":0,"o":"m 243 545 l 219 407 l 440 407 l 501 310 l 202 310 l 178 172 l 513 172 l 483 0 l 680 0 l 710 172 l 1045 172 l 1069 310 l 766 310 l 860 407 l 1085 407 l 1110 545 l 994 545 l 1240 799 l 1116 927 l 642 434 l 324 928 l 168 831 l 351 545 z "},"€":{"ha":1161,"x_min":0,"x_max":0,"o":"m 669 -40 b 1107 82 842 -40 985 9 l 1028 239 b 692 129 929 178 807 129 b 447 272 560 129 480 176 l 760 272 l 781 397 l 431 397 b 444 498 432 433 437 467 l 799 498 l 820 622 l 501 622 b 790 765 568 715 674 765 b 1099 687 901 765 1011 727 l 1174 855 b 800 935 1096 889 980 935 b 274 622 585 935 369 838 l 159 622 l 138 498 l 235 498 b 224 397 230 466 226 432 l 120 397 l 99 272 l 231 272 b 669 -40 265 69 422 -40 z "},"ƒ":{"ha":844,"x_min":0,"x_max":0,"o":"m -81 -105 l -129 -248 b 82 -290 -129 -248 -46 -290 b 451 -23 293 -290 412 -189 l 537 336 l 844 336 l 868 478 l 576 478 l 619 667 b 772 786 640 756 692 786 b 948 757 817 786 879 778 l 1001 897 b 769 935 929 917 849 935 b 440 689 591 935 488 887 l 388 478 l 192 478 l 167 336 l 351 336 l 274 7 b 88 -140 250 -97 183 -140 b -81 -105 25 -140 -26 -127 z "},"₱":{"ha":1218,"x_min":0,"x_max":0,"o":"m 208 0 l 391 0 l 422 183 l 668 183 b 1111 382 909 183 1048 249 l 1232 382 l 1252 499 l 1147 499 b 1153 575 1150 523 1153 549 l 1265 575 l 1285 692 l 1145 692 b 823 897 1117 822 1015 897 l 363 897 l 328 692 l 210 692 l 190 575 l 308 575 l 294 499 l 176 499 l 156 382 l 274 382 z m 445 315 l 457 382 l 903 382 b 692 315 859 341 792 315 z m 477 499 l 490 575 l 978 575 b 968 499 976 549 974 524 z m 510 692 l 524 767 l 797 767 b 958 692 877 767 931 745 z "},"^":{"ha":728,"x_min":0,"x_max":0,"o":"m 147 600 l 275 492 l 508 770 l 641 513 l 788 596 l 622 897 l 412 897 z "},"~":{"ha":869,"x_min":0,"x_max":0,"o":"m 345 327 b 448 277 387 327 408 303 b 605 231 506 240 558 231 b 872 351 702 231 764 260 l 791 468 b 645 390 761 445 700 390 b 544 433 603 390 588 402 b 360 490 487 473 453 490 b 126 399 277 490 194 445 l 189 266 b 345 327 220 286 280 327 z "},"´":{"ha":569,"x_min":0,"x_max":0,"o":"m 276 1099 l 344 972 l 677 1127 l 607 1269 z "},"`":{"ha":540,"x_min":0,"x_max":0,"o":"m 283 1137 l 561 981 l 646 1108 l 374 1278 z "},"˝":{"ha":808,"x_min":0,"x_max":0,"o":"m 256 1076 l 360 976 l 624 1197 l 516 1313 z m 582 1091 l 674 981 l 958 1178 l 863 1303 z "},"ˆ":{"ha":667,"x_min":0,"x_max":0,"o":"m 274 1085 l 369 983 l 533 1110 l 653 983 l 769 1087 l 610 1232 l 483 1232 z "},"ˇ":{"ha":676,"x_min":0,"x_max":0,"o":"m 291 1163 l 453 1017 l 574 1017 l 786 1164 l 692 1267 l 528 1140 l 408 1267 z "},"˘":{"ha":682,"x_min":0,"x_max":0,"o":"m 442 1217 l 292 1194 b 292 1174 292 1187 292 1181 b 510 981 292 1052 374 981 b 802 1194 660 981 765 1061 l 648 1217 b 527 1112 618 1122 563 1112 b 442 1208 492 1112 442 1122 z "},"˜":{"ha":751,"x_min":0,"x_max":0,"o":"m 544 1044 b 669 1006 575 1024 611 1006 b 879 1167 740 1006 818 1033 l 761 1222 b 689 1143 731 1160 708 1143 b 618 1170 664 1143 650 1151 b 475 1221 569 1199 529 1221 b 262 1057 384 1221 310 1174 l 381 1003 b 465 1081 413 1059 432 1081 b 544 1044 491 1081 503 1069 z "},"¯":{"ha":665,"x_min":0,"x_max":0,"o":"m 288 1169 l 264 1028 l 757 1028 l 781 1169 z "},"¨":{"ha":801,"x_min":0,"x_max":0,"o":"m 344 1188 l 312 1006 l 510 1006 l 542 1188 z m 636 1006 l 835 1006 l 867 1188 l 668 1188 z "},"˙":{"ha":372,"x_min":0,"x_max":0,"o":"m 292 1188 l 260 1006 l 458 1006 l 491 1188 z "},"˚":{"ha":587,"x_min":0,"x_max":0,"o":"m 460 956 b 697 1154 604 956 697 1043 b 515 1304 697 1240 622 1304 b 280 1105 374 1304 280 1220 b 460 956 280 1019 349 956 z m 414 1119 b 500 1198 414 1165 449 1198 b 562 1142 543 1198 562 1176 b 476 1063 562 1096 522 1063 b 414 1119 433 1063 414 1085 z "},"¸":{"ha":576,"x_min":0,"x_max":0,"o":"m 94 -137 l 52 -257 b 230 -290 83 -270 153 -290 b 466 -108 402 -290 466 -226 b 183 102 466 -11 374 53 l 105 5 b 306 -117 267 -45 306 -85 b 232 -162 306 -150 278 -162 b 94 -137 198 -162 140 -152 z "},"˛":{"ha":542,"x_min":0,"x_max":0,"o":"m 476 19 l 363 100 b 44 -157 156 35 44 -38 b 228 -290 44 -243 113 -290 b 428 -255 306 -290 385 -269 l 405 -133 b 254 -160 343 -150 292 -160 b 210 -128 226 -160 210 -153 b 476 19 210 -95 256 -46 z "},"©":{"ha":1230,"x_min":0,"x_max":0,"o":"m 693 -35 b 1212 444 1010 -35 1212 165 b 693 922 1212 722 1003 922 b 172 444 380 922 172 722 b 693 -35 172 165 373 -35 z m 292 444 b 693 810 292 655 443 810 b 1092 444 942 810 1092 655 b 693 77 1092 232 942 77 b 292 444 443 77 292 232 z m 413 443 b 683 190 413 275 521 190 b 935 269 762 190 863 213 l 882 363 b 693 300 824 324 764 300 b 551 440 612 300 551 340 b 701 590 551 554 618 590 b 876 541 751 590 808 579 l 918 640 b 695 699 856 678 782 699 b 413 443 536 699 413 609 z "},"®":{"ha":729,"x_min":0,"x_max":0,"o":"m 492 624 l 428 624 l 428 682 l 492 682 b 528 653 516 682 528 673 b 492 624 528 633 519 624 z m 147 619 b 470 316 147 448 267 316 b 796 619 672 316 796 448 b 470 921 796 791 669 921 b 147 619 272 921 147 791 z m 239 619 b 470 839 239 735 304 839 b 699 619 636 839 699 735 b 470 401 699 503 636 401 b 239 619 305 401 239 503 z m 343 497 l 428 497 l 428 559 l 481 559 b 490 560 485 559 487 559 l 521 484 l 603 511 l 575 577 b 613 652 600 594 613 620 b 496 747 613 713 572 747 l 343 747 z "},"™":{"ha":1475,"x_min":0,"x_max":0,"o":"m 756 897 l 756 438 l 885 438 l 885 806 l 1019 508 l 1207 508 l 1328 809 l 1328 438 l 1458 438 l 1458 897 l 1234 897 l 1117 600 l 992 897 z m 135 787 l 337 787 l 337 438 l 469 438 l 469 787 l 649 787 l 649 896 l 135 896 z "},"°":{"ha":663,"x_min":0,"x_max":0,"o":"m 448 426 b 724 674 616 426 724 525 b 448 921 724 822 613 921 b 173 674 283 921 173 822 b 448 426 173 525 280 426 z m 322 674 b 448 801 322 743 365 801 b 574 674 528 801 574 743 b 448 547 574 605 528 547 b 322 674 365 547 322 605 z "},"◊":{"ha":1006,"x_min":0,"x_max":0,"o":"m 174 438 l 398 0 l 608 0 l 983 438 l 763 897 l 552 897 z m 382 430 l 635 756 l 779 447 l 525 136 z "},"₹":{"ha":1060,"x_min":0,"x_max":0,"o":"m 595 235 l 676 -40 l 849 17 l 767 285 b 949 491 857 329 922 399 l 1073 491 l 1098 636 l 960 636 b 898 751 953 694 933 728 l 1118 751 l 1143 897 l 300 897 l 275 751 l 569 751 b 769 636 686 751 751 714 l 255 636 l 230 491 l 754 491 b 503 376 722 423 646 376 l 210 376 l 185 229 l 494 229 b 595 235 529 229 563 231 z "},"ﬀ":{"ha":1318,"x_min":0,"x_max":0,"o":"m 284 521 l 194 0 l 387 0 l 477 521 l 858 521 l 768 0 l 961 0 l 1051 521 l 1389 521 l 1415 674 l 1078 674 l 1090 747 b 1245 859 1104 828 1150 859 b 1444 822 1297 859 1382 841 l 1498 977 b 1250 1018 1435 996 1347 1018 b 899 761 1089 1018 934 969 l 884 674 l 503 674 l 516 747 b 657 845 528 818 570 845 b 842 808 704 845 784 826 l 896 963 b 662 1004 837 981 742 1004 b 325 761 507 1004 358 958 l 310 674 l 172 674 l 146 521 z "},"ﬁ":{"ha":1060,"x_min":0,"x_max":0,"o":"m 284 521 l 194 0 l 387 0 l 477 521 l 842 521 l 752 0 l 945 0 l 1062 674 l 503 674 l 516 747 b 706 859 530 829 590 859 b 940 822 765 859 867 841 l 994 977 b 710 1018 924 996 819 1018 b 325 761 531 1018 363 969 l 310 674 l 172 674 l 146 521 z "},"ﬂ":{"ha":1090,"x_min":0,"x_max":0,"o":"m 284 521 l 194 0 l 387 0 l 477 521 l 753 521 l 779 674 l 503 674 l 516 747 b 647 859 530 828 565 859 b 821 822 691 859 765 841 l 875 977 b 651 1018 820 995 739 1018 b 325 761 502 1018 360 971 l 310 674 l 172 674 l 146 521 z m 782 0 l 975 0 l 1144 982 l 951 982 z "},"ﬃ":{"ha":1635,"x_min":0,"x_max":0,"o":"m 284 521 l 194 0 l 387 0 l 477 521 l 858 521 l 768 0 l 961 0 l 1051 521 l 1416 521 l 1326 0 l 1519 0 l 1636 674 l 1078 674 l 1090 747 b 1280 859 1104 829 1164 859 b 1514 822 1340 859 1442 841 l 1568 977 b 1285 1018 1498 996 1394 1018 b 899 761 1105 1018 938 969 l 884 674 l 503 674 l 516 747 b 657 845 528 818 570 845 b 842 808 704 845 784 826 l 896 963 b 662 1004 837 981 742 1004 b 325 761 507 1004 358 958 l 310 674 l 172 674 l 146 521 z "},"ﬄ":{"ha":1665,"x_min":0,"x_max":0,"o":"m 284 521 l 194 0 l 387 0 l 477 521 l 858 521 l 768 0 l 961 0 l 1051 521 l 1327 521 l 1353 674 l 1078 674 l 1090 747 b 1221 859 1104 828 1140 859 b 1395 822 1266 859 1340 841 l 1449 977 b 1226 1018 1394 995 1313 1018 b 899 761 1076 1018 935 971 l 884 674 l 503 674 l 516 747 b 657 845 528 818 570 845 b 842 808 704 845 784 826 l 896 963 b 662 1004 837 981 742 1004 b 325 761 507 1004 358 958 l 310 674 l 172 674 l 146 521 z m 1356 0 l 1549 0 l 1719 982 l 1526 982 z "},"₀":{"ha":764,"x_min":0,"x_max":0,"o":"m 348 -256 b 697 78 527 -256 697 -151 b 432 324 697 247 579 324 b 78 -16 267 324 78 226 b 348 -256 78 -178 194 -256 z m 245 -1 b 419 197 245 120 322 197 b 531 67 489 197 531 149 b 363 -131 531 -56 451 -131 b 245 -1 288 -131 245 -83 z "},"₁":{"ha":764,"x_min":0,"x_max":0,"o":"m 106 -99 l 82 -235 l 640 -235 l 663 -99 l 483 -99 l 553 303 l 444 303 l 183 242 l 183 113 l 369 149 l 326 -99 z "},"₂":{"ha":764,"x_min":0,"x_max":0,"o":"m 415 107 l 285 67 b 83 -132 163 24 101 -26 l 65 -235 l 634 -235 l 657 -100 l 251 -100 l 251 -95 b 356 -44 253 -78 276 -69 l 472 -7 b 691 188 656 52 691 92 b 468 324 691 277 616 324 b 158 274 351 324 237 300 l 184 146 b 447 192 255 170 344 192 b 522 163 506 192 522 181 b 415 107 522 146 510 135 z "},"₃":{"ha":764,"x_min":0,"x_max":0,"o":"m 100 -96 l 63 -219 b 318 -256 135 -244 233 -256 b 662 -50 524 -256 662 -207 b 570 62 662 -7 636 46 b 677 194 627 76 677 125 b 426 324 677 293 570 324 b 151 283 326 324 210 299 l 172 159 b 413 199 250 181 348 199 b 488 158 467 199 488 182 b 413 102 488 133 481 102 l 255 102 l 234 -18 l 405 -18 b 478 -60 459 -18 478 -31 b 336 -129 478 -105 431 -129 b 100 -96 230 -129 145 -111 z "},"₄":{"ha":764,"x_min":0,"x_max":0,"o":"m 428 -129 l 410 -235 l 555 -235 l 573 -129 l 672 -129 l 692 -7 l 594 -7 l 647 303 l 456 303 l 77 13 l 53 -129 z m 240 -7 l 480 172 l 449 -7 z "},"₅":{"ha":764,"x_min":0,"x_max":0,"o":"m 110 -86 l 73 -211 b 335 -256 115 -227 211 -256 b 663 -37 551 -256 663 -182 b 440 110 663 69 566 110 b 295 95 382 110 338 104 l 316 177 l 631 177 l 652 303 l 217 303 l 147 28 l 215 -34 b 400 -9 271 -19 319 -9 b 492 -57 477 -9 492 -27 b 364 -124 492 -92 455 -124 b 110 -86 226 -124 169 -105 z "},"₆":{"ha":764,"x_min":0,"x_max":0,"o":"m 350 -256 b 665 -31 545 -256 665 -166 b 457 118 665 79 578 118 b 268 76 383 118 310 97 b 283 108 272 88 277 98 b 466 196 319 163 394 196 b 639 167 533 196 584 184 l 687 288 b 480 324 644 306 573 324 b 97 -31 238 324 97 178 b 350 -256 97 -181 199 -256 z m 253 -36 b 427 3 297 -15 369 3 b 514 -51 493 3 514 -13 b 369 -126 514 -97 457 -126 b 253 -36 308 -126 255 -101 z "},"₇":{"ha":764,"x_min":0,"x_max":0,"o":"m 162 -156 l 276 -256 l 688 176 l 710 303 l 174 303 l 151 169 l 480 169 z "},"₈":{"ha":764,"x_min":0,"x_max":0,"o":"m 254 51 b 81 -111 151 28 81 -17 b 349 -251 81 -208 197 -251 b 663 -68 515 -251 663 -191 b 542 45 663 -6 622 31 b 676 188 610 63 676 107 b 438 324 676 268 590 324 b 157 150 286 324 157 264 b 254 51 157 97 196 67 z m 247 -83 b 386 -8 247 -37 306 -8 b 501 -70 463 -8 501 -31 b 364 -137 501 -106 449 -137 b 247 -83 278 -137 247 -113 z m 319 151 b 424 213 319 188 358 213 b 510 165 481 213 510 195 b 404 98 510 125 465 98 b 319 151 346 98 319 119 z "},"₉":{"ha":764,"x_min":0,"x_max":0,"o":"m 310 -256 b 700 98 594 -256 700 -106 b 443 324 700 252 588 324 b 131 96 247 324 131 231 b 335 -56 131 -23 234 -56 b 528 -11 426 -56 497 -31 b 508 -58 524 -28 518 -44 b 340 -133 476 -106 409 -133 b 128 -105 244 -133 192 -122 l 96 -226 b 310 -256 142 -241 226 -256 z m 284 116 b 426 205 284 163 331 205 b 544 94 503 205 544 172 b 377 57 505 77 437 57 b 284 116 322 57 284 78 z "},"₍":{"ha":382,"x_min":0,"x_max":0,"o":"m 360 260 l 269 368 b 67 -24 168 289 67 176 b 153 -306 67 -147 112 -242 l 278 -243 b 219 -10 256 -200 219 -121 b 360 260 219 117 284 182 z "},"₎":{"ha":382,"x_min":0,"x_max":0,"o":"m 33 -244 l 123 -351 b 326 41 224 -272 326 -159 b 239 322 326 163 281 259 l 114 260 b 173 26 137 217 173 138 b 33 -244 173 -100 108 -165 z "},"¹":{"ha":764,"x_min":0,"x_max":0,"o":"m 229 613 l 206 477 l 763 477 l 787 613 l 607 613 l 676 1015 l 568 1015 l 306 954 l 306 825 l 492 861 l 449 613 z "},"²":{"ha":764,"x_min":0,"x_max":0,"o":"m 539 819 l 408 779 b 206 580 287 736 224 686 l 189 477 l 758 477 l 781 612 l 374 612 l 375 617 b 480 668 377 633 399 643 l 595 705 b 815 899 779 764 815 804 b 592 1035 815 989 740 1035 b 281 985 475 1035 360 1012 l 308 858 b 570 904 378 882 468 904 b 646 875 630 904 646 893 b 539 819 646 858 633 847 z "},"³":{"ha":764,"x_min":0,"x_max":0,"o":"m 224 616 l 187 493 b 442 456 259 468 356 456 b 785 662 648 456 785 505 b 694 774 785 705 760 758 b 801 906 751 788 801 837 b 549 1035 801 1005 694 1035 b 275 994 449 1035 334 1010 l 296 871 b 536 910 374 893 472 910 b 611 870 590 910 611 894 b 537 814 611 844 605 814 l 378 814 l 358 694 l 528 694 b 601 651 583 694 601 681 b 460 583 601 607 554 583 b 224 616 353 583 269 601 z "},"⁰":{"ha":764,"x_min":0,"x_max":0,"o":"m 472 456 b 820 790 651 456 820 560 b 556 1035 820 959 703 1035 b 202 696 390 1035 202 938 b 472 456 202 534 318 456 z m 369 711 b 543 909 369 832 446 909 b 654 778 613 909 654 860 b 486 581 654 656 575 581 b 369 711 412 581 369 628 z "},"⁴":{"ha":764,"x_min":0,"x_max":0,"o":"m 551 583 l 533 477 l 678 477 l 697 583 l 795 583 l 816 705 l 717 705 l 771 1015 l 579 1015 l 201 725 l 176 583 z m 363 705 l 603 883 l 572 705 z "},"⁵":{"ha":764,"x_min":0,"x_max":0,"o":"m 233 626 l 197 501 b 459 456 238 485 335 456 b 786 674 674 456 786 530 b 564 822 786 781 690 822 b 419 807 506 822 461 816 l 440 889 l 754 889 l 776 1015 l 340 1015 l 270 740 l 339 678 b 524 703 394 692 443 703 b 616 655 601 703 616 685 b 488 588 616 619 578 588 b 233 626 349 588 292 607 z "},"⁶":{"ha":764,"x_min":0,"x_max":0,"o":"m 474 456 b 788 681 669 456 788 546 b 581 830 788 791 701 830 b 392 788 506 830 433 808 b 407 820 395 799 401 810 b 590 908 443 875 518 908 b 763 879 657 908 708 896 l 810 999 b 603 1035 767 1017 697 1035 b 220 681 362 1035 220 890 b 474 456 220 531 323 456 z m 376 676 b 551 715 421 697 493 715 b 638 660 617 715 638 699 b 493 586 638 615 581 586 b 376 676 432 586 378 611 z "},"⁷":{"ha":764,"x_min":0,"x_max":0,"o":"m 285 556 l 400 456 l 812 888 l 833 1015 l 297 1015 l 274 881 l 603 881 z "},"⁸":{"ha":764,"x_min":0,"x_max":0,"o":"m 378 763 b 205 601 274 740 205 694 b 473 460 205 504 321 460 b 786 644 639 460 786 521 b 665 757 786 706 745 743 b 799 899 733 774 799 819 b 562 1035 799 980 713 1035 b 281 862 410 1035 281 976 b 378 763 281 809 319 778 z m 371 628 b 510 704 371 675 430 704 b 624 642 586 704 624 681 b 488 575 624 606 573 575 b 371 628 402 575 371 599 z m 443 863 b 548 924 443 900 481 924 b 633 876 604 924 633 907 b 528 810 633 837 588 810 b 443 863 469 810 443 831 z "},"⁹":{"ha":764,"x_min":0,"x_max":0,"o":"m 433 456 b 824 810 718 456 824 606 b 567 1035 824 964 711 1035 b 254 808 371 1035 254 942 b 459 656 254 689 358 656 b 651 701 549 656 621 681 b 632 654 648 683 642 668 b 463 579 599 606 533 579 b 252 607 367 579 316 590 l 219 485 b 433 456 265 471 350 456 z m 408 828 b 550 917 408 874 455 917 b 668 806 627 917 668 883 b 501 769 628 789 560 769 b 408 828 445 769 408 790 z "},"⁽":{"ha":382,"x_min":0,"x_max":0,"o":"m 483 972 l 392 1080 b 190 688 291 1001 190 888 b 276 406 190 565 235 469 l 401 469 b 342 702 378 512 342 591 b 483 972 342 828 407 894 z "},"⁾":{"ha":382,"x_min":0,"x_max":0,"o":"m 156 468 l 246 360 b 449 753 347 440 449 553 b 362 1034 449 875 403 971 l 237 972 b 296 738 260 928 296 849 b 156 468 296 612 231 547 z "},"⁺":{"ha":382,"x_min":0,"x_max":0,"o":"m 248 708 l 228 590 l 360 590 l 381 708 l 490 708 l 508 815 l 399 815 l 418 924 l 285 924 l 267 815 l 154 815 l 135 708 z "},"⁻":{"ha":382,"x_min":0,"x_max":0,"o":"m 156 827 l 132 689 l 486 689 l 510 827 z "},"⁼":{"ha":382,"x_min":0,"x_max":0,"o":"m 141 739 l 119 615 l 474 615 l 495 739 z m 151 795 l 505 795 l 526 919 l 172 919 z "},"ẞ":{"ha":2222,"x_min":0,"x_max":0,"o":"m 1640 -40 b 2182 303 1909 -40 2182 7 b 1782 550 2182 520 1965 538 b 1529 642 1647 559 1529 565 b 1805 768 1529 721 1610 768 b 2148 716 1925 768 2022 752 l 2194 881 b 1819 933 2100 908 1976 933 b 1332 617 1566 933 1332 856 b 1703 379 1332 410 1526 390 b 1990 267 1852 370 1990 368 b 1653 126 1990 172 1843 126 b 1279 207 1518 126 1367 167 l 1216 42 b 1640 -40 1320 -6 1474 -40 z m 105 42 b 528 -40 209 -6 363 -40 b 1071 303 798 -40 1071 7 b 671 550 1071 520 854 538 b 418 642 535 559 418 565 b 694 768 418 721 499 768 b 1037 716 814 768 911 752 l 1083 881 b 708 933 989 908 865 933 b 221 617 455 933 221 856 b 592 379 221 410 415 390 b 878 267 741 370 878 368 b 542 126 878 172 732 126 b 168 207 407 126 256 167 z "}," ":{"ha":694,"x_min":0,"x_max":0,"o":""}," ":{"ha":451,"x_min":0,"x_max":0,"o":""}," ":{"ha":1389,"x_min":0,"x_max":0,"o":""}}}
